<svg width="35" height="35" viewBox="0 0 35 35" fill="none" xmlns="http://www.w3.org/2000/svg">
<path fill-rule="evenodd" clip-rule="evenodd" d="M29.9008 5.08602C28.2829 3.46732 26.3608 2.18462 24.2451 1.31176C22.1295 0.438901 19.8621 -0.00688002 17.5734 8.02653e-05C7.96875 8.02653e-05 0.15 7.77977 0.146094 17.3438C0.141808 20.3892 0.944571 23.3814 2.47266 26.0157L0 35.0001L9.23828 32.5884C11.7954 33.9738 14.6581 34.6988 17.5664 34.6977H17.5734C27.1773 34.6977 34.9953 26.9173 35 17.354C35.0058 15.0732 34.558 12.814 33.6826 10.7078C32.8071 8.60171 31.5216 6.69071 29.9008 5.08602ZM17.5734 31.7704H17.5672C14.9745 31.7712 12.429 31.0773 10.1953 29.761L9.66641 29.4485L4.18437 30.8798L5.64766 25.5602L5.30312 25.0134C3.85343 22.7182 3.08535 20.0585 3.08828 17.3438C3.08828 9.39617 9.58906 2.92977 17.5789 2.92977C21.4117 2.92292 25.0903 4.43878 27.8055 7.14392C30.5208 9.84907 32.0504 13.522 32.0578 17.3548C32.0547 25.3032 25.557 31.7704 17.5734 31.7704ZM25.518 20.9743C25.0828 20.7571 22.9398 19.7087 22.543 19.5641C22.1461 19.4196 21.8531 19.347 21.5633 19.7813C21.2734 20.2157 20.4383 21.1876 20.1844 21.4806C19.9305 21.7735 19.6766 21.8055 19.2414 21.5884C18.8063 21.3712 17.4023 20.9141 15.7391 19.4376C14.4445 18.2884 13.5711 16.8696 13.3172 16.436C13.0633 16.0024 13.2898 15.7673 13.5078 15.5516C13.7039 15.3571 13.943 15.0454 14.1609 14.7923C14.3789 14.5391 14.4516 14.3579 14.5961 14.0688C14.7406 13.7798 14.6687 13.5266 14.5602 13.3102C14.4516 13.0938 13.5805 10.9602 13.218 10.0923C12.8641 9.24695 12.5055 9.3618 12.2383 9.34852C11.9844 9.33602 11.6914 9.33289 11.4031 9.33289C11.1827 9.33863 10.9659 9.38974 10.7662 9.48302C10.5664 9.57631 10.388 9.70977 10.2422 9.87508C9.84297 10.3095 8.71797 11.3595 8.71797 13.4907C8.71797 15.622 10.2805 17.6845 10.4961 17.9735C10.7117 18.2626 13.5664 22.6399 17.9344 24.5173C18.7455 24.8646 19.5742 25.1692 20.4172 25.4298C21.4602 25.7595 22.4094 25.7134 23.1594 25.6016C23.9961 25.4774 25.7375 24.5532 26.0992 23.5407C26.4609 22.5282 26.4617 21.661 26.3531 21.4806C26.2445 21.3001 25.9539 21.1907 25.518 20.9743Z" fill="white"/>
</svg>
