<svg id="Layer_1" data-name="Layer 1" xmlns="http://www.w3.org/2000/svg" viewBox="0 0 762.18 893.86"><defs><style>.cls-1{fill:#7a6900;}.cls-2{fill:#c4bd9b;}</style></defs><path class="cls-1" d="M284.79,728.38c4.81-2,10.76-2.65,15.23.53,5.05,3.67,7,10,8.13,15.92,2.56,15.6.08,31.52-3.27,46.81a182.13,182.13,0,0,1-8.52,27.27c-1.64,4.59-9.41,6.22-12.05,1.79a18.74,18.74,0,0,1,0-3.89c1.75-.25,3.76-.34,4.94-1.87,4.38-4.89,6.55-11.27,8.78-17.33,4.7-14.4,7.72-29.54,7.29-44.73-.38-6.58-1.14-14.19-6.47-18.77-4.86-3.86-11.5-1.45-16.3,1.26-12.11,7.1-21.38,17.87-31,27.86-23.76,25.62-44.89,54.39-57.84,87.06-6.15,16.21-11.43,33.07-12.23,50.52-.33,11.33,1.86,23.52,9.44,32.36,5.89,6.56,15.73,7.24,23.77,5,14.61-3.93,27.42-12.47,39.54-21.25,24.23-18.13,45.92-39.42,66.5-61.54,3.09-3.1,4.6-7.33,7.41-10.63,4.59-5.75,11.37-10.42,19-10.27,2.7-.13,5.13,1.19,7.43,2.44,3.19-1.89,7.53-7.31,11.16-3.82,2.76,8.78-6.62,17.12-2.83,25.94,3.05,4.66,9.63,3.59,14.3,2.63a102.08,102.08,0,0,0,35.5-17.28c-.33-6.66,3.59-12.59,8.76-16.43,4.05-3,8.6-6,13.8-6,2.5,0,4,2.47,4,4.73.14,5.16-1.37,10.22-3.17,15-1.15,4-8.32,3.15-8.55-1,1.44-5,6.56-8.82,6.17-14.36-4.71.74-7.89,4.66-10.9,8-3.35,3.69-5.58,8.92-3.9,13.89,2.34,6.71,7.3,12,11,18,15.72-11.47,33.17-20.41,51.25-27.54l2.06.89c5.91-4.61,14.71-7.28,21.39-2.65,2.71-2,5.32-4.31,8.63-5.2,3.12.08,3.51,3.74,3,6.11-.8,6.76-5.59,13-3.81,20,1.16,4,6,4.93,9.69,4.61,9.4-.93,18.16-4.94,26.49-9.15,5.41-3.09,11.37-5.82,15.45-10.66,3-5.44,3.49-12,6.93-17.25,2.73-1.8,7.07-2.2,9.5.33-4.4,12.76-10.11,25.1-13.83,38.12a32.16,32.16,0,0,0-.9,5.79c10.25-11.2,16.88-25.14,26.27-37,2.26-2.75,4.81-5.53,8.24-6.79,2.86-1,6.79-.44,8.27,2.53,1.8,3.44.15,7.36-.84,10.79-2,5.35-3.38,10.93-6.09,16a69,69,0,0,0-3.09,6.64c5.74-4.74,10.1-11.42,17.14-14.39,2.22-1.2,4.67.19,5.81,2.2,2.82,4.52,2.11,10.42,5.22,14.79,2.63,3,7.1,1.68,10.1,0,11.28-6.3,20.43-15.78,28-26.11,2.89-3.35,6.78-7,11.54-6.58,4.11.76,4.8,6.07,3.12,9.25-3.32,6.56-10.55,9.58-16.88,12.49.23,3.71,0,8.18,3.06,10.9,3.33,2.61,7.93,1.72,11.71.77,11.22-3.38,21.2-9.79,30.92-16.16,2.08-1.51,4.46-2.74,6.17-4.69,1.62-4.67,2.08-9.68,3.9-14.28,1.48-3.29,7.35-1.89,7,1.81-2,8.22-4.87,16.22-7.11,24.39,4.61-5,8.48-11.4,15.08-14,3.66-1.44,6.37,2.06,7.52,5.07,2.95,6.71,8.27,14,16.4,14,8.68-.42,16-5.83,23-10.45,2.58-2,6.29-3.46,7-7,4.51-14.2,9.78-28.16,15.51-41.91-10.22.15-20.45,0-30.66.59l-3.56-.23-.45-.76h0c1.64-.28,3.29-.49,5-.65,10.35-.35,20.68-1.1,31-2,7.2-16.35,14.6-32.75,24.6-47.61,2.73-3.64,5.35-7.82,9.62-9.78,3-.83,4.41,3,4.12,5.39-.81,7.29-4.55,13.82-8,20.18-6.23,10.94-13.5,21.25-20.81,31.5,24.54-2,49.08-4.15,73.65-5.89,4.15-.22,8.31-.45,12.47-.37.3,5.23-5.47,7.1-9.46,8.54-2.58,1.11-3.35-2.11-3.65-3.9-24.93,1.26-49.87,2.21-74.75,4.25-5.21,8.53-9.34,17.66-13.3,26.83a402.3,402.3,0,0,0-16.5,45.66c-3.05,10.84-5.83,21.88-6.23,33.18,0,4.32.28,9,2.71,12.73,1.63,2.73,5.05,3,7.66,4.3,0,1.49-.94,4.17-2.91,3.1-5.11-2.21-7.18-8-8-13.13-1.19-8.35-.48-16.85.75-25.15,1.82-12.22,5-24.18,8.37-36-7.36,5-15,10.35-24,11.86a18.23,18.23,0,0,1-15.72-4.18c-3.64-3.13-5.83-7.5-7.89-11.74-3.94.72-6.64,3.86-9.26,6.61a102.71,102.71,0,0,0-13.12,17.89c-1.11,2.25-4.16,2.49-6.26,1.7-1.45-1.37-.07-3.39,0-5,1.58-6.2,3.09-12.42,4.7-18.61-10.81,6.76-22.08,13.34-34.62,16.25-4.86,1-10.55,1.37-14.71-1.83-3.82-3.07-5-8.16-5.13-12.83a91.56,91.56,0,0,1-21.57,13.62c-3.48,1.48-7.88,2.52-11.18.06-4.84-3.59-5-10.2-8.11-15-7.78,4.66-12.19,12.91-18.85,18.78-3.35,3.13-11.88,1.4-9.89-4.35,4.39-10.55,9.63-20.83,12.69-31.89a16.44,16.44,0,0,0,.28-6.44c-4.83,2.31-7.6,7-10.48,11.29-5.75,8.94-10.93,18.24-16.86,27.06-2.73,3.89-5.46,7.91-9.22,10.89-2.89,2.71-8.32.23-7.93-3.84.09-8.53,3.31-16.61,5.49-24.75-9.71,5.63-19.86,10.65-30.63,13.89-5.71,1.6-11.86,3-17.73,1.43-3.86-1-6.3-4.88-6.38-8.75-.29-6.12,1.75-12,3.12-17.91-1.33,1.22-2.65,2.45-3.94,3.72.07,1.36.08,2.73,0,4.1-1.33,2-3.75,1.53-5.78,1.33-6.46,5.91-12.56,12.29-19.77,17.32-2,1.22-4.05,2.69-6.46,2.63-2.77-.58-4.42-3.55-4.09-6.23.37-4.57,2.84-8.56,5-12.46-7.42,2.28-14.25,6-21.24,9.32a153.26,153.26,0,0,0-23.17,13.28c4.18,8.69,3.08,19-.79,27.6-2.83,6.33-7.2,12.21-13.2,15.86a18,18,0,0,1-14.94,2c-3.13-1.08-4.65-4.51-4.9-7.58-.54-5.26,2-10.16,4.84-14.39,6.73-9.93,15.87-17.9,25.29-25.2-4.82-6.81-11.24-12.6-14.43-20.47-12.32,7.09-25.29,13.75-39.43,16.19-5.33.78-12.65.7-15.2-5-2.68-7.25.71-14.81,2.09-22-1.31,1.22-2.61,2.46-3.88,3.72q.11,2,0,4.11c-1.34,2-3.74,1.59-5.74,1.29-6.49,5.91-12.59,12.31-19.81,17.35-2,1.22-4.11,2.74-6.55,2.6-2-.4-3-2.43-4.23-3.86a579,579,0,0,1-42.44,41c-13.78,11.8-28.16,23.13-44.22,31.68-9.83,5-20.73,9.65-32,8.17-7.6-.92-13.83-6.48-17.16-13.15-8.1-15-7.55-32.84-4.5-49.1,7-34.91,24.35-66.88,45.38-95.28A334.5,334.5,0,0,1,261.3,745C268.36,738.48,275.82,732,284.79,728.38ZM831,756.76c-4.78,9.42-9.9,18.69-14,28.42,3.67-4.67,6.52-9.91,9.49-15,4.11-7.86,9.08-15.51,11.07-24.25C834.91,749.22,833,753,831,756.76ZM664.94,847c3.58-3,7.27-6.14,9.21-10.49C669.83,838.64,667.64,843.2,664.94,847Zm-322.82-3.28c-4.36,3.5-8.46,7.84-10.13,13.3,7.22-2.61,12.06-9.17,16.46-15.14C346.21,841.9,343.87,842.14,342.12,843.68Zm150,0c-4.4,3.48-8.41,7.87-10.21,13.28,7.29-2.49,12.08-9.16,16.51-15.09C496.23,841.9,493.89,842.12,492.15,843.66Zm-81,45.16c-3.44,4.28-6.83,8.78-8.64,14-.48,2.09-1.11,5,.93,6.53,3.55,1.94,7.85.85,11.19-1,5.44-3.15,9.4-8.34,12.23-13.85,3.55-7,5.43-15.38,2.71-23A108.73,108.73,0,0,0,411.16,888.82Z" transform="translate(-178.41 -49.41)"/><path class="cls-1" d="M727.18,798.86c2.75-1.64,7.69-1,8.1,2.81-.9,1.47-3.68.05-5.21.2C728.66,801.75,724.62,800.36,727.18,798.86Z" transform="translate(-178.41 -49.41)"/><path class="cls-1" d="M737.35,802c5.27-1.15,10.81.14,16.16-.71,3.25,0,6.91-.56,9.72,1.45-3.88.08-7.75,0-11.62,0-4.77,0-9.53-.19-14.3-.09Z" transform="translate(-178.41 -49.41)"/><path class="cls-1" d="M886.17,822.9c2.39-.81,5.48-1.7,7.62.15,1.64,1.82,1.53,4.49,1.32,6.79a46.7,46.7,0,0,1-3.36,12.48c-1.74,3.69-9.24,1.94-8.12-2.46,2-4.45,6.11-8.27,6.13-13.44-4.81.57-8,4.63-11,8-3.35,3.69-5.56,8.92-3.86,13.9,2.36,6.68,7.29,12,11,18,15.82-11.58,33.44-20.46,51.6-27.75,2.35,1.32,4.38,4.31,2.33,6.83-5.08,1.65-10.51,2.37-15.35,4.81-12.55,6-25.38,11.61-36.73,19.74,3.42,7.17,3.36,15.56.93,23-2.44,7.7-7,15-13.68,19.65-4.8,3.35-11.28,4.78-16.82,2.51-4-2.05-4.79-7.24-4.12-11.25,1.06-5.71,4.58-10.54,8.06-15,6.29-7.89,14-14.48,21.94-20.63-5.32-7.52-12.79-13.88-15.2-23.1-12.16.43-24.87,1.13-36.48-3.14-.79,9.9-2.76,20.73-10.1,28-2.94,3.12-8.92,4.38-11.62.33-2.8-4.58-1.2-10.24.11-15a49.56,49.56,0,0,1,12.77-20.09c0-2,.08-4.51,2.65-4.67,3.42.42,4,4.26,5.84,6.49,2.88,3,7.12,4.07,11.11,4.52a105.42,105.42,0,0,0,25.6-.55C870.64,832.2,878.28,826.18,886.17,822.9Zm-64.28,19.7c-4.63,6.5-8.25,14.1-8.48,22.2-.34,2,1.52,4.92,3.56,3,3-2.71,4.25-6.72,5.69-10.35,2.06-6.43,4.29-13,4.12-19.84A22.18,22.18,0,0,0,821.89,842.6Zm39.05,55c-1.81,3.21-3.85,7.13-2.38,10.85,2,2.42,5.79,2.2,8.55,1.4,6.33-2,11-7.26,14.33-12.75,4.47-7.57,7.16-17,4.15-25.59C876,878.71,867.19,887.3,860.94,897.6Z" transform="translate(-178.41 -49.41)"/><path class="cls-1" d="M572.9,50.44c3.52-1.92,7.54-.7,11.25-.13L584,55.18c-2.42-1.73-4.5-5.29-8-4.11-2.14.47-2.41,2.5-2,4.34,2.34,2.77,6.39,3.35,8.74,6.14,1.8,2.67.66,7-2.54,8-3.74,1.12-7.7.25-11.34-.82.18-1.47.35-3,.52-4.43l1.56.62c1.19,2.63,4.1,4.71,7,3.38,2.36-.24,2.78-3.83,1.34-5.32-2.44-2-5.67-2.83-7.87-5.12A4.85,4.85,0,0,1,572.9,50.44Z" transform="translate(-178.41 -49.41)"/><path class="cls-1" d="M537.11,50.13c2-.14,4-.28,5.95-.45.42,5.55.85,11.1,1.38,16.64.15,1.65,2.24,2,3.15,3l-6.33.82c0-.93,0-2.79,0-3.71-2.19,1.72-4.18,4.6-7.32,4.29a4.5,4.5,0,0,1-5-3.44c-1.09-4.45-.8-9.11-1.58-13.61a19.43,19.43,0,0,0-2.64-2.57c2-.16,4.11-.3,6.16-.47.41,5.09.28,10.29,1.54,15.28.7,3.15,5.17,3,6.76.63,2.19-1.85,1.28-4.91,1.23-7.38C540,55.94,540.43,52,537.11,50.13Z" transform="translate(-178.41 -49.41)"/><path class="cls-1" d="M600.29,52.9c4.19-.92,9.59.36,11.25,4.77a14.86,14.86,0,0,1-1.81,12.47c-3.93,5.44-14.37,3.94-16-2.82C592.7,62,594.34,54.57,600.29,52.9Zm.89,1.85c-2.83,1.82-3.43,5.44-3.86,8.52s.12,7.07,3.37,8.32c2.56,1.25,5.39-.92,6.23-3.33a16.76,16.76,0,0,0,.86-10.9A4.66,4.66,0,0,0,601.18,54.75Z" transform="translate(-178.41 -49.41)"/><path class="cls-1" d="M500.3,61.22c0-5.95,7-10.08,12.3-7.61,3,1.5,3.65,5.07,4.73,7.91-4.5.86-9,1.63-13.54,2.42.93,2.74,1.61,6.78,5.11,7.21,3.47.75,6.11-1.82,8.44-3.94.58,4.27-4.84,6.71-8.43,6.53C502.33,74.34,499.71,66.54,500.3,61.22Zm6.9-6.5c-3.44.76-3.36,4.8-3.53,7.57,3.18-.46,6.33-1.07,9.51-1.6C512.36,58,510.94,53.48,507.2,54.72Z" transform="translate(-178.41 -49.41)"/><path class="cls-1" d="M656,54.45c2.14.71,4.3,1.41,6.45,2.14-1.62,4.15-3.06,8.37-4.71,12.51,3.46-1.49,8.78-2.67,10.86,1.5,2.18,6.67-6.29,12.88-2.51,19.41-2.84-1.07-5.67-2.12-8.42-3.36l3.23-.82c1.74-4.39,4-8.78,4.36-13.53-.56-4.15-7.16-3.51-8.45-.15a81.57,81.57,0,0,0-3.65,10.21,15.54,15.54,0,0,0,1.39,3.42c-2.65-1-5.31-2-8-3,4.24-1.3,4.56-6.11,6.07-9.59,1.62-5.31,4.41-10.32,5.21-15.84C657.43,56.65,656.5,55.19,656,54.45Z" transform="translate(-178.41 -49.41)"/><path class="cls-1" d="M623.17,56.12c2.08.47,4.19.91,6.3,1.32-.23.89-.69,2.68-.93,3.57,2.57-1.16,5.41-2.91,8.32-1.74a4.75,4.75,0,0,1,3.39,5.06c-.57,4.71-2.27,9.19-3.13,13.85l2.27,2.66c-2.92-.61-5.8-1.35-8.68-2.09,1.23-.91,3.07-1.49,3.31-3.25,1.09-4,2.55-8,2.48-12.17-1.28-4.15-7.55-2.73-8.56.88-1.19,3.59-1.88,7.33-2.73,11l2.25,2.54c-2.63-.57-5.23-1.19-7.86-1.69,3.83-3.95,3.88-9.8,5.38-14.8C626,59.19,624.26,57.67,623.17,56.12Z" transform="translate(-178.41 -49.41)"/><path class="cls-1" d="M477.43,61.78c2.67-3.24,7.23-3.36,11-4,.35,1.66.67,3.32,1,5-2.64-1.32-5.79-3.7-8.73-1.69a3.06,3.06,0,0,0,.2,5.23c3,1.28,6.61.85,9.47,2.6a5.39,5.39,0,0,1,.38,8.39c-3.09,2.46-7.21,2.49-10.95,3-.4-1.39-.81-2.77-1.2-4.16l1.58-.48c1.91,2.18,5,3.37,7.59,1.55,2.39-1,1.58-3.78.9-5.63-3.18-1-6.56-1.12-9.66-2.36C476.19,68.11,475.38,64,477.43,61.78Z" transform="translate(-178.41 -49.41)"/><path class="cls-1" d="M442.12,72.61c6.95-3.24,12.76,4.37,13,10.68,1.13,7.2-8.77,12.45-14.31,8.17a15.25,15.25,0,0,1-4.91-10.11A9,9,0,0,1,442.12,72.61Zm-.84,2.15c-2.35,1.51-2.37,4.62-1.68,7,1,3.28,2.49,6.7,5.46,8.64,2.39,1.58,6.3,0,6.65-2.91.64-3.82-1.08-7.62-3.19-10.7C447,74.55,443.74,72.82,441.28,74.76Z" transform="translate(-178.41 -49.41)"/><path class="cls-1" d="M411.14,76.83c1.91-1.21,3.82-2.4,5.75-3.58,4.13,7.56,8.15,15.18,12.4,22.67.75,2,2.84,2.11,4.63,2.4-1.93,1.12-3.86,2.23-5.82,3.31-.2-.73-.62-2.19-.83-2.93l-1.63-.52a29,29,0,0,0-5.15-10.47c-1.86-2.37-5.8-1.39-7.19,1-1.56,2.13-.62,4.93.27,7.13,1.21,2.59,2.83,5.27,5.46,6.63s5.59-1.27,6.09-3.87l1.14,2.09c-1.51,1.89-2.83,4.34-5.39,4.92-3.34,1.15-6.56-1.27-8.33-3.91-2.5-3.49-4.33-8.41-2-12.44,1.64-3.14,5.21-4.16,8.31-5.22C416.89,81,415.81,76,411.14,76.83Z" transform="translate(-178.41 -49.41)"/><path class="cls-1" d="M684.07,78.34c5.27-2,12.87,1.91,12.51,8a14.65,14.65,0,0,1-4.61,10c-5.24,5.15-15.94.32-15.23-7.08C677.5,84.93,679.74,80.18,684.07,78.34Zm3.3,1.43c-4.18,1.71-6,6.55-7,10.61-1.09,3.66,2.94,7.92,6.56,5.84,3.91-2.52,5.89-7.29,6.34-11.78A4.74,4.74,0,0,0,687.37,79.77Z" transform="translate(-178.41 -49.41)"/><path class="cls-1" d="M387.43,103.9c1.55-2.85,4.75-6.36,8.29-4.37,3.95,2.8,5.67,7.67,8.77,11.27.85,1.59,2.88,1,4.32,1.5-2.44,1.61-4.85,3.26-7.19,5,0-1,.1-2.92.14-3.9a57.64,57.64,0,0,0-8.08-11.18c-2.27.33-4.89.88-4.92,3.76C388.31,105.29,387.87,104.59,387.43,103.9Z" transform="translate(-178.41 -49.41)"/><path class="cls-1" d="M714.42,105.86c2-3.84,5.88-7.36,10.48-6.76,3.89.51,8.1,4,7.4,8.24-.22,2.19-1.46,4.09-2.33,6.07-3.76-2.37-7.28-5.13-11.18-7.25-2.1,2.26-3.65,6.16-1.29,8.79,1.84,2.29,4.93,2.39,7.62,2.52.18.37.52,1.13.7,1.5-4.24,1-9.18-.14-11.7-3.9C712.15,112.3,712.78,108.62,714.42,105.86Zm5.11-1.45c2.65,2,5.4,3.83,8.21,5.58.64-1.84,1.7-3.6,1.82-5.58a4.54,4.54,0,0,0-4.62-3.47C722.78,101.44,721.2,103.08,719.53,104.41Z" transform="translate(-178.41 -49.41)"/><path class="cls-1" d="M379.65,108.32c1.69-1.54,3.47-3,5.27-4.38l1.63,3.11,1.57.14c.89,3.85,3.7,6.8,5.82,10,.84,1.87,3,1.64,4.71,2.05-2.42,1.58-4.81,3.21-7.12,4.94,1.36-4.2-2.15-7.21-4.14-10.43C385.41,111.16,383.71,106.69,379.65,108.32Z" transform="translate(-178.41 -49.41)"/><path class="cls-1" d="M743.77,110.79c1.85,1.36,3.65,2.79,5.45,4.23l-2.58,2.56c2.93.23,6.66-.26,8.61,2.54,1.54,1.43.76,3.66.91,5.49,3.4-.29,7.67.06,9.16,3.71,1.16,3.79-2.3,6.57-4.39,9.19-2.12,2.81-6,5.29-4.54,9.38q-3.32-2.87-6.65-5.68l3.67-.53a57,57,0,0,0,8.05-9.74c2.11-3.79-3.58-6.81-6.53-4.59a49.26,49.26,0,0,0-7.8,9c0,.91,0,2.74,0,3.66-2.16-1.92-4.34-3.82-6.51-5.72,4.17.76,6.07-3.38,8.48-5.85,1.6-2.19,4.59-4.57,3.38-7.6-2-3-6.75-2.42-8.62.42-2.41,3.31-7.3,6.22-5.8,10.93q-3.28-2.92-6.69-5.7c1.45-.36,3.37.09,4.41-1.28,3.21-3.46,6.22-7.11,9.17-10.8C744.62,113.51,744.06,111.7,743.77,110.79Z" transform="translate(-178.41 -49.41)"/><path class="cls-1" d="M361.51,126.56c2.07-3.85,4.48-8.82,9.4-9.29,5.42,2.25,7.87,8.24,12.11,12,1.11-.12,2.22-.22,3.34-.32-1.47,1.44-3,2.83-4.52,4.22l-2.07-2.6c-.56,3.06-1.31,6.6-4.36,8.14-3.08,2.3-7.48-.78-7.28-4.33.25-4.17,3.71-7,6.28-9.94-1.91-1.76-4-5.12-7-3.53-2.52,1-2.73,3.7-2.34,6l-1.56,2Zm9.77,4c-.91,1.9-.44,4.59,1.63,5.5,3.23.72,5.93-2.9,5.39-5.9a22,22,0,0,0-2.76-4.48C374,127.24,372.25,128.63,371.28,130.6Z" transform="translate(-178.41 -49.41)"/><path class="cls-1" d="M344.26,138.92c1.49-2,3.75-4.91,6.67-3.68,4.8,2.17,7.61,7,11.95,9.87l3.41-.11-1.06,1.09c-1.46,1.47-2.92,2.95-4.36,4.43-.23-.56-.68-1.69-.9-2.25-2-3.5-5.54-5.88-8.53-8.51a3.4,3.4,0,0,0-5.68,1.07C345.25,140.19,344.75,139.56,344.26,138.92Z" transform="translate(-178.41 -49.41)"/><path class="cls-1" d="M343.57,141.31l1.77-.45a6.88,6.88,0,0,0,2.67,7.27c3,2.33,5.44,6.94,9.94,5.77-2,2.07-4,4.2-6.05,6.29-.09-.93-.26-2.77-.35-3.69a52.89,52.89,0,0,0-9.72-8.83c-4-1.51-6.23,4.08-4.18,6.93a51.43,51.43,0,0,0,8.48,8l3.56-.13c-2.05,2.12-4,4.3-6,6.46-.06-.83-.19-2.48-.25-3.3-3.32-4-7.4-7.46-11.34-10.9l-3.32,1.1c1.32-1.87,2.77-3.63,4.27-5.36l2.42,2.81c.39-2.94.28-6.54,3-8.44,1.55-1.42,3.78-.66,5.66-.8Z" transform="translate(-178.41 -49.41)"/><path class="cls-1" d="M785.78,150.52l4.24,4.69-3.23,2.46c3.51,0,7.56.94,9.11,4.5a42.42,42.42,0,0,1-3.95,3.4c-.72-2.32.18-6.13-3-6.57-2.89-.83-5.11,1.45-7.14,3.09-2.58,2.25-6.48,4.42-5.34,8.5q-2.85-3.57-5.89-7l3.4.24A86.1,86.1,0,0,0,784.67,155C786.13,154,785.47,152,785.78,150.52Z" transform="translate(-178.41 -49.41)"/><path class="cls-1" d="M320.43,172.27c-.81-3.46-.57-7.6,2.5-9.92a41.75,41.75,0,0,1,4.13,3c-2.09,1.27-6.41,1.53-5.77,4.92.87,4.4,5.64,6.24,8.76,8.88,1.58,1.66,3.63.7,5.49.16-1.79,2.51-3.67,5-5.68,7.29.45-4.08-3.7-5.8-6.32-8-3-2-6-5.88-10-3.56,1.29-1.82,2.55-3.64,3.82-5.46Z" transform="translate(-178.41 -49.41)"/><path class="cls-1" d="M788.93,179.3c2.56-3.46,6.49-6.46,11-6.39,5.08,0,9.61,5.36,8.18,10.37-.94,2.37-3,4-4.78,5.72-2.72-3.62-5.24-7.4-8-11-2.19,1.86-5.13,4.07-4.38,7.37.56,3.28,3.8,4.9,6.67,5.84l-.56,1.6c-3-.85-6.2-2-7.83-4.85C787.48,185.45,787,181.84,788.93,179.3Zm7.8-2.4c1.77,2.76,3.68,5.43,5.61,8.09a25.3,25.3,0,0,0,3.34-3.75c1.29-2.52-1-6-3.81-5.76A21.65,21.65,0,0,0,796.73,176.9Z" transform="translate(-178.41 -49.41)"/><path class="cls-1" d="M307.07,186.67c4.94-1.87,10.26,1.4,13.31,5.19,4.21,5.15-.21,13.72-6.45,14.49a14.55,14.55,0,0,1-11.41-6.56C299.82,195.18,302.45,188.92,307.07,186.67Zm-2,3.69c-2.82,2.13-1.75,6.15.7,8.08,3,2.52,6.72,5,10.8,4.47,3.56-.92,4.35-5.75,1.78-8.14C315.12,191.43,309.71,187.79,305.09,190.36Z" transform="translate(-178.41 -49.41)"/><path class="cls-1" d="M813.44,197c-.31-1.51-.79-3.28,1.46-3.18a16.84,16.84,0,0,1,6.94,6.57c1,1.89,1.21,4.7-.64,6.15-3.65,3.25-8.54,4.69-12.17,7.94-.16.84-.46,2.53-.62,3.37-1-1.7-2.12-3.39-3.19-5.06.88-.61,1.8-1.21,2.72-1.81-3.15-1.15-7.1-2.89-7.44-6.72-.74-3.51,3.18-6.36,6.41-5.27,3.68,1.29,5.74,4.89,8.11,7.75,2.21-1.63,6-3.51,4.45-6.88C818.62,197.23,815.76,197.15,813.44,197Zm-10.2,7.28c.22,2.16,1.49,4.39,3.73,4.94,2.35,1.24,4.55-.87,6.67-1.7-1.54-2-3-4.26-5.24-5.54C806.41,200.86,804.1,202.49,803.24,204.31Z" transform="translate(-178.41 -49.41)"/><path class="cls-1" d="M287,199.1c1.18,1,2.36,1.91,3.49,2.92-1.53.67-3.64.59-4.55,2.24-.9,3.83,3.59,5.13,6,6.83,1.29-1.55,1.66-5,4.47-4.17-.81,1.7-1.68,3.38-2.53,5.07,4.69,2.26,9.11,5.12,14,7a29.8,29.8,0,0,0,3.48-1.3,66.31,66.31,0,0,1-4.55,8.05c-.13-.83-.41-2.49-.54-3.32-4.64-2.51-9.32-4.93-14-7.36l-1.46,2.6c.64-4.73-5.68-5.14-6.35-9.34C283.51,205,285.43,201.89,287,199.1Z" transform="translate(-178.41 -49.41)"/><path class="cls-1" d="M837.8,209.79c1.21,2,2.36,4,3.52,5.94-8.36,4.28-16.92,8.17-25.2,12.61-.14.87-.43,2.61-.58,3.48a74.09,74.09,0,0,1-4.11-8.69c.64.46,1.94,1.36,2.59,1.82,4.17-1.44,8-3.65,12-5.54a89.25,89.25,0,0,0,11.62-6.1C837.66,212.43,837.75,210.67,837.8,209.79Z" transform="translate(-178.41 -49.41)"/><path class="cls-1" d="M285.18,225.41a13.91,13.91,0,0,1,4,2.89c-2.28.84-5.57,1.08-6.06,4a3.31,3.31,0,0,0,2.77,4.64c3.46-1,5.35-4.51,8.56-6,3.07-1.27,7.07,1.12,7.17,4.5.15,4-2.32,7.41-4.34,10.66-1.53-.64-3.06-1.31-4.56-2,2.12-1.63,5.58-1.67,6.6-4.47.74-1.76.67-4.47-1.51-5.12-3.61-1.23-5.67,2.93-8.33,4.54a4.94,4.94,0,0,1-7.92-1.58C280.25,233.12,282.91,229,285.18,225.41Z" transform="translate(-178.41 -49.41)"/><path class="cls-1" d="M842,230.65l4-1.45c.23,1.17.57,2.35.71,3.55-1.09.55-2.19,1-3.29,1.51C842.88,233.05,842.43,231.85,842,230.65Z" transform="translate(-178.41 -49.41)"/><path class="cls-1" d="M836.73,229.87c.95,1.92,1.9,3.84,2.87,5.76-5.38,2.51-11.09,4.32-16.3,7.15-.34.78-1,2.34-1.38,3.12-1.21-2.62-2.36-5.25-3.55-7.86,1.51.48,3.17,1.55,4.79.73,3.81-1.52,7.64-3,11.35-4.82C836.29,233.41,836.08,231.26,836.73,229.87Z" transform="translate(-178.41 -49.41)"/><path class="cls-1" d="M832.51,250.93c4-1.62,9.39-2.19,12.5,1.37,2.25,2.21,2.48,5.5,2.75,8.46,3.41-1.37,8.69-1.43,8.81-6.28q1.18,3.15,2.36,6.31c-8.86,3-17.79,5.72-26.6,8.82l-.87,3.67c-.94-2.08-1.78-4.18-2.59-6.3l3.6-.84c-2.5-1.78-5.79-3.5-6.11-6.92C825.53,255.23,829.21,252.26,832.51,250.93Zm2.83,3.06a11.39,11.39,0,0,0-5.8,3.8c-1.78,3.52,2.15,8,5.87,7,3.39-1,7.1-1.77,9.92-4.06,1.39-2.54.34-6.29-2.5-7.29C840.38,252.37,837.74,253.34,835.34,254Z" transform="translate(-178.41 -49.41)"/><path class="cls-1" d="M272.93,254.44a5,5,0,0,1,6-3.15c4.41,1,8.6,2.85,13,4l2.83-2.14c-.76,2.9-1.7,5.74-2.73,8.56l-1.68-2.88a47.19,47.19,0,0,0-12.42-3.94c-4.4-.3-4.6,6.13-1.52,8.06,3.67,1.9,7.77,2.77,11.7,4,1-.7,1.95-1.4,2.94-2.08-1,2.87-1.93,5.72-2.86,8.59-.84-1.25-1.16-3.14-2.86-3.53-4.36-1.67-8.84-3-13.28-4.42-1,.75-2,1.48-3,2.21.52-2.11,1.09-4.21,1.67-6.31,1.14.4,2.27.79,3.41,1.21C273.23,260.05,271.74,257.19,272.93,254.44Z" transform="translate(-178.41 -49.41)"/><path class="cls-1" d="M848.36,278.05c3.65-.1,5.1,3.62,6.35,6.39,1.11,2.61,1.26,6.55-1.8,7.87-4.16,1.73-8.76,1.95-13,3.38-1.61.26-1.79,2.26-2.63,3.3-.49-1.92-.95-3.84-1.47-5.74l3.15-.61c-2.76-2.24-6.13-5.37-5-9.34.81-3.42,5.68-4.54,8.1-2.12,2.77,2.39,3.67,6.08,4.84,9.4,2.58-.78,7-1.58,6.37-5.25,0-2.65-2.52-3.56-4.54-4.38C848.61,280.23,848.44,278.78,848.36,278.05Zm-12.11,8.26c.08,2.78,2.31,4.5,4.63,5.54,1.48-.38,3-.74,4.49-1.1-.91-2.27-1.4-4.9-3.25-6.63S836.09,283.34,836.25,286.31Z" transform="translate(-178.41 -49.41)"/><path class="cls-1" d="M264.63,282.77c.49-2,2.14-4,4.33-3.84,5.09.2,9.89,2.3,15,2.55l2.23-2.15c-.36,2.05-.77,4.1-1.19,6.14l-3.13-1c1.5,3.15,3.34,7.31.74,10.43-2,3-7,2.16-8.28-1-1.48-3.44-.58-7.33-.53-10.94a22.78,22.78,0,0,0-5.59-.26c-2,.45-2.5,2.73-2.62,4.47,1,1.93,2.31,3.7,2.66,5.9l-3.38-.42C264.42,289.36,263.89,286,264.63,282.77Zm10.75.53c-.14,2.51-.79,5.14,0,7.59s4.51,3.24,5.93,1a6.54,6.54,0,0,0,.09-5.34C280.24,284.36,277.5,284.09,275.38,283.3Z" transform="translate(-178.41 -49.41)"/><path class="cls-1" d="M260.76,301.56c1.56.17,3.13.35,4.7.51l.12,1.52c-1.47,1.38-3.64,2.91-2.34,5.18,2.63,4.24,8.33,3.18,12.56,4.12,2,.65,3.18-1.34,4.59-2.35-.43,2.9-.9,5.79-1.29,8.7-1.2-1.2-2.22-2.9-4.13-2.89-4.36-.66-8.73-1.55-13.14-1.63-.95.72-1.8,1.55-2.67,2.35q.34-3.17.61-6.31l3.86.5A10.74,10.74,0,0,1,260.76,301.56Z" transform="translate(-178.41 -49.41)"/><path class="cls-1" d="M839.13,311.36c.81-3.57,4.52-5.18,7.77-5.82,4-1,8.89-.23,11.41,3.3,2.05,2.66,1.81,6.19,1.71,9.35,3.47-.76,8.31,0,9.55-4.33.37,2.12.73,4.26,1.1,6.39-8.61,1.14-17.25,2.1-25.85,3.33-2.08-.14-2.73,2.06-3.82,3.36q-.42-3.1-.88-6.19l3.6-.51C841.14,318.06,838.14,315.07,839.13,311.36Zm2,2.89c1,2.82,3.15,6.24,6.71,5.36,3.55-.69,8.63.18,10.59-3.69a5.32,5.32,0,0,0-4.56-6.82C849.24,308.59,842.9,309.13,841.1,314.25Z" transform="translate(-178.41 -49.41)"/><path class="cls-1" d="M249.66,323.68c2.62.16,5.25.28,7.87.46-1,2.54-4.16,2.25-5.89,4-.73,1.54-.54,3.34-.8,5,7.72.47,15.44,1.1,23.19,1.13,2.05.24,2.82-2,4.05-3.2-.15,3.54-.43,7.07-.64,10.61-1-1.22-1.55-3.37-3.5-3.3-7.79-1.05-15.71-.57-23.53-1.45a22.21,22.21,0,0,0,.53,5.21c1.74,1.65,4.26,2.33,5.68,4.37-2.7.12-5.4,0-8.1,0C248.66,338.87,249.45,331.29,249.66,323.68Z" transform="translate(-178.41 -49.41)"/><path class="cls-1" d="M845.34,335.72a14.08,14.08,0,0,1,13,.2c4.69,2.71,5.64,10.7,1,13.82-2.06,1.17-4.47,1.36-6.73,1.82-.06-4.62-.32-9.23-.39-13.85-2.8.68-6.8.63-7.92,3.92-1.31,3.41.91,6.48,2.65,9.21C840.36,349.73,839.52,338.63,845.34,335.72Zm8.54,2c0,3.27.09,6.55.29,9.82,2.42-.58,6.83-.87,6.58-4.29C861.33,339.34,856.72,338.44,853.88,337.76Z" transform="translate(-178.41 -49.41)"/><path class="cls-1" d="M247.32,372.38c3.32,1,6.75,1.78,10.21.88.18,1.08.37,2.17.56,3.27C254,377.65,249.21,376.47,247.32,372.38Z" transform="translate(-178.41 -49.41)"/><path class="cls-1" d="M861.72,375.8c4.39-.62,8,2.16,10,5.88-3.33-1.45-6.76-2.72-10.45-2.47C861.4,378.07,861.55,376.93,861.72,375.8Z" transform="translate(-178.41 -49.41)"/><path class="cls-1" d="M247.61,379.91c3.59,0,7.07,1.55,10.67.42l0,3.42A10.54,10.54,0,0,1,247.61,379.91Z" transform="translate(-178.41 -49.41)"/><path class="cls-1" d="M860.8,382.9c4.26-.58,8.6,1.64,9.82,6a19.43,19.43,0,0,0-10-2.68C860.64,385.35,860.75,383.72,860.8,382.9Z" transform="translate(-178.41 -49.41)"/><path class="cls-2" d="M360.87,150.52c1.44-1.48,2.9-3,4.36-4.43a58.44,58.44,0,0,1-5.4,5.83c0-1.22.09-2.44.14-3.65C360.19,148.83,360.64,150,360.87,150.52Z" transform="translate(-178.41 -49.41)"/><path d="M391.73,177.07a57.53,57.53,0,0,1,10.66.19l-.57,1.49,1.44-.77,0,.77c1,.8,1.94,1.62,2.89,2.45.46,1.34.93,2.67,1.35,4l.74-.17c0,3.45,0,6.9-.06,10.34l-1-.31c0,2.08,0,4.17,0,6.25l1.31-.11c-.14.48-.42,1.45-.57,1.93l1.4.16c-.08.49-.26,1.46-.35,1.95l1.43,0c-.08.49-.26,1.46-.35,1.95l.81.1,2.65,4,.26,0c1.2,1.59,2.5,3.11,3.78,4.64,1.19.91,2.36,1.84,3.58,2.73l-.09.29,1.6,1.43.77-.36-.26,1.36,1.9-.08c.06.5.17,1.5.23,2l1.87-.17.11,1.29,1.91-.45v1.42l1.36,0a55.67,55.67,0,0,0,5.18,5.35l1.71.79-.23,1,2-.5.08,1.45,1.88-.37.09,1.3,1.28-.05c.84.87,1.7,1.71,2.61,2.51l.2,1.32,1.93,0-.1,1.26,1.36-.26-.31,1.39,1.94-.5-.09,1.42,1.32-.4-.16,1.39,1.92-.28v1.31l1.94-.15c0,.48.13,1.44.17,1.93l2-.15-.1,1.35,1.9-.27.12,1.33,1.88-.28c.06.51.17,1.54.23,2l1.94-.26-.07,1c.9.4,1.79.83,2.67,1.3l1.27,1.12a21.08,21.08,0,0,1,2.44,1.81c.91.44,1.83.87,2.76,1.3l-.08.9,1.93-.37-.06,1.35,1.49,0a3.16,3.16,0,0,0,3.36,2c1.5-1.51,2.7-3.27,4.09-4.88l.08-1.32.78.24,1-1.65,1.48-2c.25-.41.75-1.25,1-1.66l.38.09c.9-1.32,1.84-2.61,2.74-3.93l.31,0c1.18-1.71,2.48-3.33,3.68-5l.35,0c.88-1.34,1.8-2.65,2.69-4l.86.11-.51-1.31,1.28.17.16-1.28c.75-.89,1.51-1.79,2.27-2.67l.64,0c0-.33.05-1,.06-1.33l2.34-2.57.64-.14c0-.47-.1-1.4-.13-1.87l1.91-.19-.12-2,.89.1c.5-.88,1-1.76,1.52-2.64l1.08-1.53.33.1c.36-.59,1.09-1.75,1.46-2.34l-.12-.75,1.26.2-.24-1.95,2-.24c0-.47-.11-1.41-.14-1.88l.91,0c.5-1,1-2.06,1.53-3.09l.33.2,1.47-1.55-.19-.69,3.19.24c-.12.51-.35,1.52-.47,2l1.13-.13c0,9.38.43,18.76.37,28.15l.79-.35c-.09,6.47.25,12.93.19,19.4l.81-.45c0,4.85.21,9.69.16,14.54l.81-.55c-.1,6.48.3,12.95.22,19.43l.8-.37c0,5.73.34,11.46.35,17.2l.83-.25c-.06,1.37-.12,2.73-.18,4.11-.93,10.25,1.17,20.42,1.26,30.65.26,12.35,1.09,24.68,2.18,37,.56,16.36,2.51,32.64,2.87,49a28.09,28.09,0,0,0,1.68,9.29c.09,7.07.3,14.14.34,21.21l.77-.3c-.29,8.52,1.62,16.9,1.13,25.45l.75-.37c0,7.07.29,14.13.36,21.19l.83-.26c-.06,4.07.15,8.15.19,12.23l.69-.14c.08,9.05.25,18.1.31,27.15l.84-.36c0,3.82.14,7.63.12,11.46l.76-.37c-.05,3.83.14,7.66.1,11.5l.81-.41c0,5.42.3,10.83.3,16.24l.74-.2c0,4.8.21,9.59.16,14.39l.81-.46c0,5.13.28,10.25.23,15.37l.81-.34c-.08,8.13.23,16.27.16,24.41l.79-.43c0,3.16.15,6.34.17,9.51l.81-.54c-.34,5.5,1.4,10.83,1.13,16.33-1,0-2,0-2.92.06,0-1.42-.09-2.83-.13-4.22l-.88.11-.08-3.12-1,.22c0-.81,0-2.42.06-3.23l-1,.14c0-.79,0-2.39,0-3.18l-1,.29q-.07-2.11-.12-4.23l-.93.21c0-.82,0-2.45,0-3.26l-.77.33a53.94,53.94,0,0,0-1.23-5.64l-.81.61c-.11-1.77-.23-3.55-.32-5.3l-.89.28c0-.85,0-2.55,0-3.4l-.75.47c-.45-2.48-1.18-4.89-1.58-7.37l-.77.34c0-.83,0-2.48.05-3.3l-1,.3c0-1.43-.08-2.86-.11-4.27l-1.27.12c.16-.52.5-1.56.66-2.07l-1.23.14c-.06-1.45-.12-2.88-.16-4.31l-1.26.27.64-2.07-1.22.06c0-1.41-.08-2.8-.11-4.2l-1,.22c0-.79,0-2.36-.05-3.15l-.94.24c-.07-1.45-.13-2.89-.19-4.32l-1.47.16c.06-4.25-2.09-8-2.68-12.15l-.72.25c0-.82.07-2.46.1-3.29l-1.08.35c0-.83,0-2.47,0-3.29l-1,.23c0-.84,0-2.52,0-3.35l-1,.36-.08-3.14-.94.11c0-.8,0-2.4,0-3.2l-1.36.09.7-1.94h-1.2c-.06-1.4-.12-2.8-.18-4.18l-1,.26c0-.78,0-2.35,0-3.13l-.91.08c-.06-1.43-.11-2.86-.16-4.28l-1.3.3c.18-.52.54-1.57.73-2.09l-1.25,0c0-1.41-.07-2.82-.1-4.22l-1,.32c0-.82,0-2.46,0-3.28l-1,.27c0-1.42-.07-2.82-.1-4.22l-.94.22V535.1l-1.05.31c0-.81,0-2.44,0-3.26h-1.28c.19-.49.59-1.47.78-2l-1.38.13c0-.79,0-2.37-.07-3.16l-.93.08V524l-1.06.32c0-.82,0-2.44,0-3.25l-.9.15c-.07-1.44-.13-2.86-.18-4.28l-1,.5v-3.31l-1,.13c0-.82.08-2.46.11-3.28l-.82.35c-.45-2.48-1.16-4.89-1.53-7.38l-.76.37c0-.82.05-2.47.07-3.29l-1,.28c-.07-1.41-.13-2.81-.19-4.2l-1.22.12c.15-.51.44-1.55.58-2.07l-1.26.23v-3.32l-1,.19,0-3.27-1,.41c0-.82,0-2.47,0-3.29l-.93.13,0-3.19-1.07.29c0-.81.08-2.45.11-3.26l-.93.15c-.07-1.42-.14-2.84-.2-4.24l-1,.5c0-.85,0-2.55.06-3.4l-1,.15c0-.81.05-2.44.06-3.26l-.77.39c-.57-4.63-2.95-8.78-3.63-13.38l-1,.28.64-2.09-1,.17c-.51-3.54-2.17-6.77-2.63-10.31l-.67.23,0-3.15-.71.23c-.32-2.16-1-4.23-1.46-6.34l-.75.29c0-1.43-.07-2.85-.1-4.26l-1,.26c0-.82,0-2.45,0-3.27l-1.06.33c0-.83,0-2.48.06-3.31l-1,.27V423l-1.07.39c0-.81,0-2.44.05-3.25l-1,.23V417l-1,.4c0-.81,0-2.41,0-3.21l-.9.15q-.11-2.13-.18-4.26l-1.29.27c.16-.52.5-1.56.67-2.09l-1.17.06c-.07-1.43-.13-2.85-.18-4.27l-1.23.28c.14-.52.44-1.56.59-2.08l-1.17,0c-.05-1.41-.1-2.81-.13-4.22l-1,.3c0-.81,0-2.42,0-3.23l-1,.24.12-3.31-1,.31c0-.84,0-2.52-.05-3.36l-1,.44c0-.83,0-2.5.05-3.34l-1,.22c0-.84,0-2.53,0-3.37l-.76.48c-.39-2.15-1-4.24-1.48-6.35l-.84.28,0-3.17-1,.08c0-.77,0-2.32,0-3.1l-1,.26a52.18,52.18,0,0,1,0-9.27l.72.15c1.17-1.76,2.45-3.45,3.63-5.21l.82.15c0-.5-.11-1.48-.15-2l.79.06,1.1-1.55,1.35-2.66.52.07c.5-1,1-2,1.5-3.05l.46.05c.49-.87,1-1.73,1.5-2.59l1.08-1.59,1,.19c-.1-.49-.29-1.48-.39-2l.92.16,1-1.56,1.44-2.19,1.09-1.61.87.19c-.09-.49-.29-1.48-.39-2l1.43.16-.41-1.3,1.28.13c0-.5-.14-1.51-.18-2l.89.16,1-1.58c.48-.87,1-1.74,1.46-2.61h.9l-.32-2,.93.2,1.07-1.56c.46-.92.92-1.83,1.39-2.74l.95.17-.2-1.5c1.89-.58,2-2.34,2.07-4-1.73-1.28-3.38-2.65-5.13-3.89l-.05-.29c-1.32-.89-2.6-1.81-3.91-2.69l.05-.34c-1.74-1.19-3.4-2.48-5.14-3.65l.1-.81-1.91.08c-.06-.47-.17-1.42-.22-1.9l-1.92.06.18-1.32-1.34.35.31-1.3c-1.31.09-2.6.2-3.9.3-.07,2-.17,4-.23,6l-.93-.16-.09,4.22-.94-.39-.09,4.3-.87-.23c-.05,1.41-.09,2.81-.12,4.22l-1-.31-.06,4.22-.93-.15c0,.84,0,2.52,0,3.37l-1-.46c-.06,1.39-.11,2.8-.16,4.2l-.92,0c0,.8.1,2.42.13,3.22l-1-.31c0,1.38-.1,2.77-.14,4.15l-.89-.08c0,.83.05,2.48.06,3.31l-1-.41c-.05,1.42-.09,2.84-.13,4.27l-1.1,0c.15.51.45,1.54.61,2l-1.18-.18c-.1,1.73-.23,3.45-.33,5.19l-.83-.23c0,1.43-.07,2.87-.1,4.31l-1-.43c0,.86,0,2.6.07,3.46l-.78-.38c-.34,3.11-1.3,6.11-1.65,9.23l-.78-.38c0,.84.07,2.52.1,3.36l-.91-.19c0,.84,0,2.5,0,3.34l-1-.41c0,1.43-.05,2.88-.06,4.32l-.89-.21c-.05,1.4-.1,2.8-.14,4.2l-.72-.35c-.31,2.2-.87,4.35-1.31,6.53l-.74-.42c-.1,1.75-.21,3.49-.29,5.25l-.86-.26-.06,4.23-1-.28c0,.85.1,2.53.13,3.37l-.81-.32a25.45,25.45,0,0,1-2.1,8.52q-.17,1.83-.3,3.69l-1.74-.09c0,.52-.09,1.56-.13,2.07l-2-.24-.07,1.39-1.93-.52.14,1.29-3.19.07,0,1.21-1.9-.49v1.47l-2-.32-.16,1.3-2-.54.16.94c-2.41.79-4.69,1.88-7,2.79l-.12.8-2-.5.1,1c-1.4.45-2.77,1-4.14,1.48l.23.91-4.16-.07c0-.51.14-1.53.19-2l-1,.21c-.51-2.09-1.09-4.16-1.43-6.28l-.78.27c0-.84.07-2.51.1-3.35l-1.06.34.08-3.29-.71.27c-.57-3.19-1.76-6.21-2.56-9.33l-.79.31c0-.8,0-2.39,0-3.19l-.93.13c0-.82,0-2.46,0-3.28l-1,.41c0-1.4-.08-2.79-.11-4.18l-.87,0a45.32,45.32,0,0,1,1.18-17.35l.7.45c0-1.41.09-2.82.14-4.23l.86.11.09-4.19.71.32c.53-3.85,1.94-7.49,2.57-11.32l.67.26c0-1.43,0-2.85,0-4.26l.72.3c.59-3.82,1.95-7.47,2.59-11.28l.47.35c.51-2.78,1.29-5.5,1.56-8.32l.56.39c.45-2.19,1-4.35,1.37-6.55l.74.48c0-1.44.06-2.88.11-4.31l.91.18c0-.83-.08-2.49-.11-3.32l1,.42c0-1.43.08-2.85.13-4.27l.88.13c0-.84,0-2.51,0-3.35l1,.47c0-1.45.06-2.89.1-4.32l.93.23c0-1.42,0-2.85,0-4.26l.78.26c.29-2.79,1.11-5.48,1.53-8.25l.71.28,0-3.33.81.44c.24-2.85,1-5.61,1.55-8.41l.71.42c0-1.45.07-2.89.11-4.32l1.14,0-.63-2,1.29.24q0-2.17.09-4.32l.9.2c0-1.43.06-2.85.1-4.26l1,.37c0-1.43.06-2.85.1-4.28l1.08.08-.52-2.13,1.24.3c.07-3.42,0-6.92,1.36-10.13l-1.28-.06c0-.49,0-1.47.07-2h-1.94c0-.51,0-1.52.06-2H422l.48-1.9-1.14.09c0-1.08,0-3.23,0-4.3l.59.11c.44-1.38,1-2.71,1.48-4.06l1,0c-.11-.47-.32-1.41-.42-1.88l1.17.06a15.85,15.85,0,0,0,1.49-5.13l-2.37.17.2-1.3-1.29.27c0-.49,0-1.47-.06-2l-1.92-.07c0-.47,0-1.41,0-1.87l-3-.19.08-1.19-2,.44,0-1.53-1.93.64v-1.2l-4.2-.26.34-1.21-2.08.44,0-1.11-3.25.07.38-1.08-3.25-.05.16-.91-4.28,0,.39-.87c-2.77-.12-5.54-.25-8.31-.23l.13,1.22-1.3.07c-1.35,2-3.69,2.56-5.84,3.18l.26.62a83.8,83.8,0,0,1-10.27.08l.11-1.31-2,.56.16-.87-1.6-1.5-.81.29.44-1.36-1.09.29-.41-2.3c-1.55-6.11-.65-12.35.19-18.48q.17-1.75.3-3.51l1.08.38L369,198l1.42.14c-.12-.48-.37-1.44-.5-1.92l1.09,0c.55-1.31,1.12-2.62,1.63-3.94l.45.1.8-1.66a57.19,57.19,0,0,1,8.24-8l.24-.05c.83-.79,1.68-1.57,2.56-2.33l1.42,0-.3-1.15,3.17-.07-.12-1h3.43Zm40.46,63.31c.05.46.13,1.37.17,1.82l-1.33-.12.35.75-1.47,1.59-.65-.22c-.11,1.73-.2,3.46-.25,5.2l2.22-.35,0,1.36,1.9-.33v1.33l2-.2c0,.5.08,1.49.11,2l2-.2-.1.93,3.11,1.52-.13.52,3.07,1.55-.11.94,1.31-.48-.23,1.4,1.94-.26,0,1.35,1.31-.48-.24,1.37,2-.17,0,1.26,1.9-.23.16,2,2-.22-.23,1.34,1.32-.39-.11,1.38,2-.32-.15,1.34,1.3-.36-.17,1.41,1.94-.37-.09,1.38,1.32-.41-.16,1.43,2-.41-.12,1.38,1.31-.43-.18,1.42,2-.3L465,273l1.52,1.35h2l-.29-.67,1.43-1.6.75.25c0-.33,0-1,0-1.34,1.78-1.39,3.25-3.22,3.05-5.63l-1.5.07.21-1.31-1.89.38.11-1.42-1.31.41.22-1.4-2,.29.12-.9-1.52-1.14L463,259.06l.18-1-1.9.35-.07-1.25-1.3-.07c-1.45-1.25-2.92-2.47-4.33-3.74h-1.4l.21-1.28-1.32.43.14-1.4-2,.31.13-1.33-1.31.4.21-1.4-2,.35-.13-1.34-1.83.22V247l-2,.2c-.05-.5-.14-1.5-.18-2l-1.95.17.13-1.34-1.44.53.45-1.19-4.2-.24.34-1.17-.81.38-1.54-1.51.32-.66Z" transform="translate(-178.41 -49.41)"/><path d="M728.31,179.26l1.9.12-.08-1.08a55.7,55.7,0,0,1,14.19.06l-.22.89h3.23l-.44,1.28,1.42-.52-.09,1.35,1.91-.19c0,.5.15,1.49.21,2l1.91-.09.09.65a30.27,30.27,0,0,1,4.44,4.47l1.38.15c0,.48-.07,1.44-.09,1.92l1.28-.19-.39,1.29,1.39-.11-.28,1.9,1.37,0-.47,1.34,1.42-.25c-.09.49-.26,1.46-.35,1.95l1.32.11c-.07.48-.22,1.43-.29,1.91l1.51.09c-.15.46-.43,1.4-.57,1.87l1.12,0c0,.81,0,2.43.06,3.24l1.31-.22c-.15.51-.46,1.53-.62,2l2,.16-1.66,2,2.19-.36-.54,3.31,1.47-2.87c.09,4.19,0,8.38-.27,12.57l-2.57.1c-.5,1-1,2.1-1.49,3.16l-.39-.23c-.35.4-1.06,1.22-1.42,1.62l.27.84-1.37-.41.16,1.44-2-.57.14,1.29A82.78,82.78,0,0,1,750,227.2l.34-1-3.21,0,0-1.17-1.87.31c-.07-.52-.21-1.57-.27-2.1l-1.9.19.14-1.3c-2.44,0-4.86.08-7.28.14l.39.86c-1.77,0-3.51.12-5.25.18l.18.87-3.22.05.31,1.09-3.31-.07,0,1.17-2.06-.56.3,1.23-2.72.22c-1.19.45-2.39.88-3.59,1.28l.2,1-2-.53,0,1.2-3,.17c0,.47,0,1.39,0,1.85l-1.35-.17.43,1.36-.78-.33L709,234.58l.26.85-2.11-.38c0,1.39,0,2.79,0,4.18l1.32-.24-.35,1.33,1.4-.08-.56,1.91,1.06,0c.53,1.32,1.12,2.62,1.62,4l.52,0c0,1,0,3.15,0,4.21l-1.07,0c.12.49.36,1.45.49,1.94l-.93,0c-.82,1.12-1.69,2.2-2.46,3.36a35.73,35.73,0,0,0,1.42,13.74l.65-.2c0,.83,0,2.49,0,3.32l1-.44c0,1.44,0,2.89.06,4.34l.88-.21c.05,1.42.1,2.85.16,4.28l1-.42c0,.83-.07,2.49-.1,3.33l.87-.18c.1,1.73.24,3.46.36,5.19l1.25-.22c-.18.52-.56,1.57-.74,2.09l1.18,0c0,1.43,0,2.87.1,4.32l1-.47c0,1.43,0,2.86.09,4.3l.65-.21c.4,2.45,1.12,4.84,1.53,7.29l.62-.32c.1,2.38.29,4.77.44,7.15l1.37-.18a71.41,71.41,0,0,0,1.61,8.42l.7-.39c0,1.42,0,2.85,0,4.28l.91-.18c0,.81,0,2.42,0,3.23l1-.37c0,1.44.05,2.88.08,4.33l1.14-.06-.61,2.09,1.24-.29c.07,1.76.14,3.51.23,5.27l.61-.22c.45,2.44,1.24,4.8,1.64,7.25l.66-.24c0,1.41,0,2.83.05,4.26l1-.37c0,1.41.06,2.83.1,4.26l.89-.28c0,1.76.14,3.54.22,5.32l1.27-.22c-.18.5-.52,1.51-.69,2l1.2,0c0,1.43,0,2.86,0,4.3l.73-.34a48.27,48.27,0,0,1,1.58,9.24l1.08-.53-.64,1.56,1.12-.25c.06,1.75.16,3.51.23,5.26l1-.31c0,.85-.07,2.55-.09,3.41l1-.33c.88,5.33-2.1,10.08-2.34,15.3l-.69-.5a48.1,48.1,0,0,0-1.28,5.46l-.94-.14c.14.51.43,1.53.57,2l-1.25-.23c-.06,1.42-.11,2.85-.16,4.28l-1.19-.07.6,2-1.24-.29c0,1.44-.1,2.87-.13,4.31l-.93-.25c0,1.43-.09,2.87-.13,4.31l-1.34-.23.76,2-.93,0a24.67,24.67,0,0,1-1.54,5.11l-4,.06.12-1.33-1.92.4-.14-1.4-2,.46.28-1.25-3.24-.06,0-1.18-2,.4.08-1.45-2,.39-.12-1.35-2,.53.25-1.25-3.23-.13.13-1.18-1.41.62.34-.91-3.63-1.47-1.4.3V414l-2,.4-.1-1.43-1.94.43.26-1.38-.9.2-1.41-2.38,0-2.76-.76.21c-.09-2.05-.22-4.09-.31-6.12l-1.71.1c-.09-1.75-.19-3.49-.24-5.23l-1,.32c0-.83.12-2.47.15-3.29l-.85.22c-.07-1.76-.13-3.5-.2-5.24l-1,.27c0-.82,0-2.46,0-3.28l-1,.27,0-4.26-.92.23c-.06-1.4-.11-2.79-.16-4.17l-.94.27c0-1.43-.05-2.85-.06-4.27l-1.21,0c.17-.52.52-1.54.69-2.06l-1.25.29c-.08-1.79-.17-3.57-.23-5.35l-.8.3c-.06-.7-.2-2.09-.26-2.79A18.33,18.33,0,0,1,683.9,359l-.64.29c0-1.42,0-2.84-.06-4.25l-1,.3c0-.82.08-2.47.1-3.29l-.9.26c-.12-2.07-.27-4.13-.38-6.19l-.89.34A32.5,32.5,0,0,1,679,340l-.54.45c-.29-1.22-.59-2.42-.92-3.61-.54-2.26-1.2-4.48-1.6-6.75l-.66.25c0-1.43-.07-2.85-.09-4.27l-1,.29,0-3.29-1,.28c0-1.44-.06-2.87-.08-4.3l-1,.27c0-.82,0-2.46.07-3.28l-1,.31c-.07-1.76-.13-3.51-.18-5.26l-.9.33c0-1.44-.06-2.87-.07-4.3l-.75.34A65.81,65.81,0,0,0,667,297.29l-1.94-.11.17,1.16-1.88-.15-.2,2-1.89-.17-.14.67c-.88.76-1.74,1.54-2.58,2.33l-1.34.07.25,1.31-1.32-.47.12,1.34-1.92-.09c0,.48-.14,1.45-.18,1.94l-1.94-.11-.05.68L649.48,310l-1.27.11.2.71c-.4.3-1.21.9-1.62,1.19q-1.34.72-2.61,1.5l.23.94-.78-.43-1.58,1.49.31.76-1.25-.22c0,1.06,0,3.17,0,4.23l1.25-.25-.36,1.31,1.35-.15-.36,1.93,1.4-.09-.42,1.28,1.29-.14c0,.34,0,1,.05,1.35,1.25,1.43,2.44,2.93,3.7,4.37,0,.32.05,1,.07,1.28l.83-.06,1.53,3.07.5-.05,1.5,3,.9,0c0,.48-.12,1.43-.15,1.9l1.4.19a49.26,49.26,0,0,0,3.12,5.41c.67.94,1.34,1.89,2,2.86,1.06,1.47,2.14,2.93,3.28,4.35l.16,1.24.53.15c.75.85,1.5,1.72,2.25,2.59l.08,1.36.7,0c.74,1.15,1.51,2.28,2.31,3.4l1.43,2.67.82-.17c.08,2.41,0,4.84-.06,7.26l-1-.4c0,1.44-.08,2.88-.11,4.33l-1-.27c0,.83,0,2.49.06,3.31l-1.07-.37c0,.83,0,2.49.05,3.31l-.92-.21c-.08,1.4-.15,2.81-.22,4.23l-1.31-.2.71,2-1.21,0,0,3.19-1-.37-.08,3.2-.66,0c-.53,2-1.19,4-1.57,6.1l-.34-.15c-.36,2.09-1,4.11-1.55,6.15l-.69-.13c0,1.41-.09,2.83-.11,4.25l-1-.36c0,.84.08,2.51.11,3.34l-.76-.31c-.4,2.45-1.14,4.83-1.59,7.27l-.77-.29c0,.81,0,2.45.05,3.27l-1.27-.06c.18.52.55,1.55.73,2.06l-1.1-.27c-.42,2.13-1,4.23-1.53,6.35l-.77-.36c-.07,1.4-.14,2.8-.2,4.21l-1.18.05c.19.5.56,1.49.75,2l-1.32-.13c-.07,1.4-.13,2.81-.18,4.22l-.93-.23c0,.83.08,2.48.1,3.3l-.79-.42a54.7,54.7,0,0,1-1.68,6.64,34.32,34.32,0,0,0-.91,3.76l-.66-.34c0,1.41-.09,2.82-.13,4.24l-1.29-.08c.17.49.52,1.48.7,2l-1.32-.12c0,.82,0,2.45,0,3.27l-1-.17c0,.79,0,2.36,0,3.15l-.72-.3c-.38,2.14-1,4.23-1.49,6.35l-.48-.41c-.37,2.16-1,4.29-1.47,6.42l-.77-.31c0,1.42-.08,2.84-.1,4.27l-.94-.2c0,.81,0,2.43,0,3.25l-1.07-.35c0,.84.07,2.5.09,3.33l-1-.24c-.07,1.39-.14,2.79-.2,4.19l-1.32-.13c.2.5.59,1.5.78,2l-1.22-.07c-.12,1.71-.24,3.44-.35,5.17l-1.23-.47.74,1.49-.94-.19c-.38,2.08-1,4.09-1.6,6.12l-.44-.13c-.39,2.09-1,4.12-1.59,6.17l-.76-.18c0,.81,0,2.44.06,3.26l-1-.28c0,.83,0,2.49,0,3.32l-1-.29c0,1.41-.06,2.83-.07,4.25l-1-.25c0,.8,0,2.42,0,3.23l-1.05-.3c0,.83.06,2.47.09,3.29l-1-.22c0,.84,0,2.52,0,3.36l-1-.42c0,.82,0,2.47,0,3.3l-.95-.24c-.05,1.4-.11,2.81-.15,4.22l-.71-.33c-.79,3.09-2,6.07-2.62,9.2l-.64-.1c0,.83,0,2.5,0,3.34l-1-.43,0,3.23-.95-.1c0,.82.08,2.45.11,3.26l-.78-.28c-.47,2.42-1.19,4.8-1.6,7.24l-.5-.3c-.51,2.09-1.15,4.16-1.51,6.29l-.68-.23v3.29l-1-.43,0,3.35-1-.18c0,.83,0,2.49,0,3.32l-1-.44c0,.81,0,2.42,0,3.23h-.61c-.8,3.4-2.16,6.65-2.71,10.11l-.78-.37c0,.82,0,2.45,0,3.26l-1-.1,0,3.25-1.08-.35.08,3.24-1-.15c0,1.39-.08,2.79-.11,4.2l-1-.33c0,.83,0,2.48,0,3.31l-1-.27c0,.83.07,2.49.1,3.31l-1-.24c0,.82,0,2.46,0,3.28l-.73-.46c-.37,2.15-1,4.26-1.47,6.39l-.52-.26c-.36,2.12-1,4.19-1.49,6.29l-.76-.28c0,1.4-.09,2.8-.13,4.21l-.93-.17c0,.8,0,2.39,0,3.19l-1.06-.33c0,.84,0,2.52.05,3.36l-1-.21c0,.82,0,2.46,0,3.28l-.77-.45c-.42,2.48-1.15,4.89-1.57,7.37l-.79-.31.08,3.28-1-.22.12,3.3-1-.29c-.07,1.39-.13,2.79-.18,4.19l-1-.14.41,1.25-2.36-.16c-.1-3.81,0-7.62.09-11.43l.64.09c0-2.81,0-5.63.23-8.43,1.55-7.81.87-15.81,1.7-23.69.66-13,1.94-25.92,2.3-38.91,0-3.68.11-7.34.07-11l.82.38c0-4.15.17-8.3.14-12.45l.78.32c0-10,.41-20.1.41-30.15l.81.49c0-5.48.25-11,.21-16.42l.76.36c-.21-6.8.57-13.6,0-20.38l.95.61c0,2.33.09,4.67.2,7,.92-5.93.74-11.94,1-17.92.33-10,1.24-20,1.95-30,.11-12.67,2-25.23,2.28-37.89.48-10.38,1.74-20.7,2-31.09.53-8.33,1.35-16.68.85-25-.06-2.57,0-5.15,0-7.72l.82.47c0-6.47.27-12.94.24-19.41l.74.37c0-5.8.26-11.59.23-17.38l.84.47c-.08-5.47.23-10.95.2-16.42l.69.28c.17-8.32.37-16.62.05-24.93.5,6.78.88,13.57,1.2,20.36-.22-8.59-.17-17.18,0-25.77l.72.29c0-5.47.26-10.93.21-16.39l.82.49c0-6.43.32-12.86.3-19.29l.71.22c0-5.79.33-11.57.21-17.36l1.21.5-.58-1.39,3.31.3-.16,1.8,1.28-.06-.31,1.25,1.33-.2c0,.5-.11,1.48-.15,2l2,.17c0,.48-.11,1.43-.15,1.9l1.24,0c0,.48,0,1.44,0,1.92l1.84.16-.08,2,1-.18c.49,1,1,2.1,1.49,3.16l.9-.15c0,.5,0,1.49,0,2l1.89.19c0,.48-.1,1.44-.14,1.93l1.28-.05c0,.48-.07,1.43-.09,1.91l2,.22c-.05.48-.13,1.43-.18,1.91l.76,0c1,1.36,2.05,2.65,3.13,4l1.12,1.56c1.13,1.36,2.33,2.68,3.5,4l.87,1.66.92-.28-.12,1.95,1.95.25c0,.46,0,1.4-.07,1.87l1.3-.15-.42,1.28.85-.14c.89,1.32,1.81,2.63,2.71,4l.44,0q.75,1.52,1.53,3l.93-.08c-.06.49-.17,1.46-.22,1.95l2,.2c-.05.48-.16,1.45-.22,1.93l1-.11,1.55,3.07.92-.08-.42,1.3,1.34-.28-.12,1.92,3.13.33-.13-.81c2.08-.69,4.28-1.39,5.74-3.15l1.34-.11-.07-1.3,1.93.31.15-1.45,1.92.59-.3-1.44,1.36.38-.07-1.37,2,.32-.18-1,1.58-1c.88-.49,1.76-1,2.66-1.45l-.07-.91,2,.21c0-.4.09-1.19.13-1.59,1.35-.49,2.69-1,4.05-1.54l-.2-.57c.88-.48,1.77-.94,2.68-1.39l1.66-1.15-.17-.87,2,.34-.29-1.37,1.34.39-.09-1.37,2,.29L685,239l1.28.42-.12-1.26,1.92.05.12-2,1.92,0c0-.5.11-1.5.15-2l1.93.24.08-1.33,1.9.35,0-1.43,2,.48-.2-.94,1.59-1.09,2.18-1.47,1-1.31c1.13-1,2.27-2,3.45-2.9l0-.78,1.87.43.18-1.37,1.89.35L708,222l1.37.35-.32-.79,1.63-1.42.76.27-.12-.72a20.65,20.65,0,0,0,2.57-2.38l1.36,0-.18-.79c.36-.38,1.09-1.14,1.45-1.53l.31.19a52.08,52.08,0,0,0,4.06-5.81l1.36-.25c0-.48-.11-1.44-.15-1.92h1.31c-.07-.48-.23-1.44-.31-1.92l1.4-.06c-.11-.49-.35-1.47-.46-1.95l1.41-.1-.36-1.93,1.19.13q0-3.16,0-6.33l-.94.29c-.11-3.41-.2-6.81-.09-10.22l1,.2c0-.8,0-2.38.07-3.18l1.18.2L727,181l1.33.25ZM698.38,240.9l-1.58,1.46-.88-.38.43,1.25-3.3,0,.19,1.29L691.3,244l0,1.37-2-.09-.16,1.94-2-.17v1.38l-1.87-.32,0,.9c-1.06.49-2.11,1-3.15,1.49l.07,1-2-.32.16,1.38-1.33-.36.2,1.31-2-.24c-.06.51-.16,1.52-.21,2l-1.89-.17v.9l-3,1.52.07.49-3.13,1.46,0,.92-1.9-.4,0,.79L664.49,263l-1.26.17v1.17l-1.91-.07c0,.34-.13,1-.17,1.34-1.65,1.39-3.19,2.9-4.72,4.4l1.83.26-.28,2.06,1.39-.33-.4,1.37,1-.22c.54,1.1,1.08,2.19,1.64,3.29,1.73-.09,3.65-.1,4.24-2.1l1.49.07-.3-1.29,1.31.33-.06-1.32,2,.29L670,271l1.32.46-.07-1.37,2,.31-.16-1.35,1.3.37-.09-1.4,2,.45-.28-1.4,1.33.38-.14-1,3.18-1.49-.16-1,2,.27c.06-.51.16-1.52.21-2l1.88.2.08-1.29,2,.28-.21-1,3.24-1.51-.22-.91,1.36,0c.87-.77,1.74-1.54,2.62-2.3l.26-.75,1.84.47-.31-1.42,1,.36,1.28-1.55,2.09-.91-.09-.53c1.06-.46,2.13-.91,3.21-1.36l-.15-.92,2.24.28c0-1.44-.08-2.87-.11-4.3l-1.27.13c.09-.49.26-1.47.35-2l-1.42.15.4-.76-1.42-1.6-.78.31.25-1.21-2.39.17Z" transform="translate(-178.41 -49.41)"/><path d="M539.22,250.78c2.85.16,4.84,2.25,7,3.84l-.19.87,1.4-.51-.36.83,1.57,1.52.74-.39-.07.82c2,1.59,3.84,3.32,5.82,4.91l-.12.79.77-.34,1.62,1.47-.35.8,1.33-.37,0,.7,2.4,2.13c.79.59,1.59,1.18,2.4,1.76l0,.72,4.2-.07-.07-.62a51.21,51.21,0,0,0,4.52-3.94c.77-.65,1.55-1.29,2.35-1.92l-.09-.79.74.33,1.58-1.47-.34-.79,1.35.41-.07-.7c1.26-1.07,2.47-2.21,3.64-3.39l1.3-.12L582,256l1.36.42-.36-.8,1.61-1.47.19.31,1.58-1.53-.32-.8,1.37.32-.33-1.21,3,0c.19,13.69.22,27.38,0,41.06l-3-.07.26-1.19-1.34.33.31-1.37-1.37.44.34-.81-1.58-1.5-.77.39.08-.77c-2.64-2.13-5-4.58-7.43-6.92-1-1-2-2-3-3l-1.62-.84.23-.86-4.14,0q-.18,22.13,0,44.25l1.28-.11-.44,1.9.7.17c.81.83,1.62,1.68,2.44,2.54l0,1.35,1.24-.16c0,1.05-.1,3.17-.13,4.22l-1.27-.32.46,1.39-1.37-.32.42,1.35-1.37-.34.33,1.3-1.37-.08c.11.49.34,1.45.46,1.93l-1.29-.1c-.29,18.2.11,36.4-.16,54.6a10.85,10.85,0,0,0,1.31,5.57l1.08-.24-.23,1.31,2-.07-.12,2,1.4-.11c.29,2.71-.89,5-2.55,7l-.93-.08.3,1.27-1.34-.18c.13.48.38,1.45.51,1.93l-1.3-.09c0,19.07-.32,38.15.1,57.21l.69-.27,1.46,1.61-.31.8,1.38-.41-.39,1.37,1.4-.35-.47,1.4,1.4-.31c-.06,1.49-.14,3-.23,4.49a64,64,0,0,0-5,4.71c-.13,19-.15,38,.07,57l1.21-.09c0,.32,0,.95,0,1.26a34,34,0,0,1,3.3,3.78l.58-.11,0,4c-1.59,1.59-3.16,3.21-4.59,4.95l-.54.16c-.15,20,0,40.08-.06,60.12l1.25,0-.28,1.93,1.26-.13.19.56q1.07,1.3,2.19,2.58l.7-.07c-.08,1.47-.16,3-.25,4.43-1.76,1.45-3.37,3.06-5,4.65-.29,10.64.11,21.29-.1,31.93-1,.11-2,.23-2.95.36-.15-8.62.17-17.25,0-25.87a27.16,27.16,0,0,0-1-5.51l-1,0,.4-1.95-.9.21-1.27-1.53c-.47-.89-.93-1.77-1.41-2.64l-.72.15c0-1.08,0-3.24.07-4.32l1.28.4L559,613l1.41.36-.45-1.35,1.39.31-.25-.8,1.48-1.59.45.23c.45-1.84,1.2-3.65,1.13-5.56q0-25,0-49.93a19,19,0,0,0-1-5.38c-1.63-1.76-3.3-3.49-4.94-5.23,0-1,0-3,0-4l.79.25c.5-1.06,1-2.12,1.51-3.17l1.69-.06c0-.48-.15-1.43-.21-1.91l1.19,0c0-.77.1-2.31.14-3.08l.86.21q-.15-26.11,0-52.22l-1.17,0,.55-1.87-1.37-.05c0-.49,0-1.46,0-1.95l-1.5-.06c-1.7-2.05-2.95-4.31-2.61-7.07l1.45.29-.5-1.4.83.31,1.46-1.58L561,466l1.06.29c.51-1.34,1.07-2.65,1.55-4l.55,0c-.16-13.55,0-27.1-.07-40.65-.07-4.56.49-9.23-1-13.64l-1,.16c.07-.5.2-1.51.27-2l-1.37.16.38-1.3-1.3.23c0-.37,0-1.12,0-1.49-2.6-.7-1.76-3.55-2-5.55l2-.14c0-.49,0-1.48,0-2l1.32.24-.34-1.29,1.36.17-.28-2.08,1.39.17c-.13-.53-.38-1.58-.51-2.1l1.11.05c0-18.4-.1-36.81.06-55.21l-1.12.06.39-1.91-.89.2-1.45-1.64.34-.78-.9.23c-.75-1.12-1.54-2.2-2.25-3.33-.94-2.35,1.25-4,2.34-5.71l1.51-.08c0-.5,0-1.5-.07-2h1.39c-.12-.47-.38-1.4-.51-1.87l1.19,0q-.13-20.28,0-40.56a5.39,5.39,0,0,0-1.57-4.49l-.5,2.09-1.94-.3.31,1.37-.84-.37-1.59,1.51.2.77-2-.14c0,.5-.12,1.51-.17,2l-1.91-.13.19,1.37-.77-.35-1.6,1.46.06.2a65.7,65.7,0,0,0-6.1,5.58l-1-.23.34.76-1.57,1.49L543,291l.28,1.27-4.09.06C539.21,278.44,539.19,264.61,539.22,250.78Z" transform="translate(-178.41 -49.41)"/><path d="M359,679.24c1.59,0,3.19,0,4.8,0q15.74,45.78,31.67,91.48h10.93c0,.85,0,2.56,0,3.41q-21.84,0-43.67,0c0-.84,0-2.53,0-3.38q7.14,0,14.3,0c-2.79-8.23-5.51-16.49-8.26-24.73-10.09,0-20.18,0-30.27,0-2.89,8.25-5.83,16.48-8.65,24.75H344c0,.84,0,2.53,0,3.37H314.69c0-.84,0-2.53,0-3.38,3.68,0,7.36,0,11,0Q342.37,725,359,679.24Zm-5,24.5c-4.73,13-9.48,25.93-14.06,39,9,0,18.08,0,27.12,0C362.69,729.71,358.49,716.68,354,703.74Z" transform="translate(-178.41 -49.41)"/><path d="M549.28,681.34a131.36,131.36,0,0,0,25-2.06q0,45.74,0,91.48h10.09c0,.86,0,2.56,0,3.42-8.28.11-16.64-.33-24.84,1,0-3.5,0-7-.05-10.5-2.7,4.13-5.9,8.42-10.81,10a19.79,19.79,0,0,1-21.19-4c-8.53-8.39-11.57-20.88-11.49-32.52-.13-12.52,4.89-25.46,14.77-33.43,6.31-5.1,16-5.65,22.61-.78,2.78,2.08,4.39,5.24,6,8.26q0-13.79,0-27.55c-3.33,0-6.66,0-10,0Q549.27,683,549.28,681.34Zm-9.7,22.35c-2.73,1.31-4.19,4.19-5.1,6.93-2.8,8.57-1.86,17.69-2,26.54.22,8.81-.75,17.77,1.34,26.43.89,3.28,2.15,6.87,5.12,8.86,3.65,2.27,8.4.55,11.27-2.24,6.3-6.27,9.29-15.29,9.26-24.07,0-12.4,1.15-26.15-6.59-36.74C550.08,705.16,544.7,701.89,539.58,703.69Z" transform="translate(-178.41 -49.41)"/><path d="M426.48,701.32c8-.39,16-.36,24-.63,0,4.32,0,8.64,0,13,2.7-4.6,6.14-9.1,11.29-11.08,6.53-2.88,15.48-3.28,20.7,2.33,4.54,5.27,5.2,12.59,5.77,19.23.24,15.53,0,31.08.11,46.62h8.92c0,.85,0,2.55,0,3.4H465c0-.85,0-2.55,0-3.41h8.83q0-21.81,0-43.62a76.43,76.43,0,0,0-1.33-15.48c-.57-2.73-2.24-5.71-5.23-6.19-4-.68-7.52,2.1-9.77,5.13-5.32,7-6.6,16-7,24.58-.1,11.86,0,23.72,0,35.58h8.82c0,.86,0,2.56,0,3.41H426.48c0-.86,0-2.58,0-3.43l9.43,0q0-33,0-66.09c-3.15,0-6.29,0-9.44,0Q426.45,703,426.48,701.32Z" transform="translate(-178.41 -49.41)"/><path d="M608.39,701.33c7.94-.4,15.9-.37,23.85-.63q0,7.66,0,15.36c3.38-6.21,7.85-12.68,15-14.8,4.62-1.18,10.6-1.29,13.87,2.8,3.37,3.67,2.69,11.1-2.5,12.7-3.11.88-7.08.85-9.46-1.64-2.32-2.7-.91-6.47-.95-9.64-4.16,0-7.13,3.21-8.9,6.64-5.32,9.74-7,21-6.89,32v26.61c4.17,0,8.34,0,12.51,0,0,.86,0,2.57,0,3.43H609.4c0-.86,0-2.57,0-3.43h8.23q0-33,0-66.09c-3.08,0-6.16,0-9.24,0C608.37,703.55,608.38,702.44,608.39,701.33Z" transform="translate(-178.41 -49.41)"/><path d="M701.54,701.69c6.34-2.12,13.8-1.3,19.18,2.84,9.06,6.81,13.32,18.77,11.89,29.87-11.82.06-23.64,0-35.45,0,.3,10.22-1,20.77,2.09,30.69,1,3.19,2.89,6.43,6.15,7.68,5.78,2.12,12.43-.63,16-5.42a50.31,50.31,0,0,0,8.69-19.46h3.32c-2,8.53-4.92,17.65-12.13,23.22-6.81,5.59-17.2,6.89-24.67,1.82-8.45-5.9-13.72-15.71-15.35-25.76-1.51-11,0-22.62,5.71-32.22C690.35,709.25,695.14,704,701.54,701.69ZM699.75,708c-2.78,7.32-2.5,15.32-2.61,23,6.7-.06,13.42.11,20.13-.07.43-8,1.49-16.87-2.84-24.09C711.3,701.47,702,702.06,699.75,708Z" transform="translate(-178.41 -49.41)"/><path d="M748.88,701.36h31.65c0,1.09,0,2.19,0,3.31-3,0-5.93,0-8.89,0,5.15,14.66,10.22,29.36,15.49,44,4.6-14.6,8.91-29.3,13.27-44-3.32,0-6.63,0-9.94,0,0-1.12,0-2.23,0-3.34,7.27,0,14.54,0,21.81,0l0,3.28-7.81,0q-11.9,38.69-23.75,77.38a107.41,107.41,0,0,1-3.81,11.09c-1.67.16-3.32.37-5,.65a75.26,75.26,0,0,0,8-23.51c-7.91-21.95-16.24-43.76-24.38-65.63l-6.73,0C748.87,703.84,748.88,702.18,748.88,701.36Z" transform="translate(-178.41 -49.41)"/><path d="M757.53,793.57c4.62-2.46,9.47,1,14.26-.08l.17.29.45.76,3.56.23c-2.67,4.1-5.23,8.79-9.86,11a8.56,8.56,0,0,1-10.21-2.3c-1.87-2.44-1.11-5.73-.27-8.38,3.87,0,7.74.06,11.62,0C764.44,793,760.78,793.56,757.53,793.57Zm10.41,2.93c.93,1.27,4,.41,2.94-1.36C769.85,794.09,767.48,794.86,767.94,796.5Z" transform="translate(-178.41 -49.41)"/></svg>