<svg id="Layer_1" data-name="Layer 1" xmlns="http://www.w3.org/2000/svg" viewBox="0 0 150.73 203.7"><defs><style>.cls-1{fill:#7a6900;}.cls-2{fill:#c4bd9b;}</style></defs><path class="cls-1" d="M517.68,418.52a4.19,4.19,0,0,1,2.71,0c0,.39,0,.79,0,1.18-.58-.42-1.09-1.28-1.92-1-.52.12-.59.61-.49,1.05.57.67,1.55.81,2.11,1.48a1.32,1.32,0,0,1-.61,1.94,4.85,4.85,0,0,1-2.74-.2c0-.36.09-.71.13-1.07l.37.15a1.32,1.32,0,0,0,1.7.81c.57-.05.67-.92.33-1.28a17.21,17.21,0,0,1-1.9-1.24A1.17,1.17,0,0,1,517.68,418.52Z" transform="translate(-439.08 -418.27)"/><path class="cls-1" d="M509,418.45l1.43-.11c.11,1.34.21,2.68.34,4,0,.39.54.47.76.73l-1.53.2v-.9c-.53.42-1,1.11-1.77,1a1.08,1.08,0,0,1-1.2-.83c-.27-1.08-.2-2.2-.39-3.29a4.61,4.61,0,0,0-.63-.62l1.48-.11a21.67,21.67,0,0,0,.38,3.68c.16.77,1.24.72,1.63.16s.31-1.19.29-1.78C509.73,419.85,509.84,418.9,509,418.45Z" transform="translate(-439.08 -418.27)"/><path class="cls-1" d="M524.29,419.12a2.29,2.29,0,0,1,2.72,1.15,3.6,3.6,0,0,1-.44,3c-1,1.31-3.47,1-3.85-.68C522.46,421.3,522.85,419.52,524.29,419.12Zm.22.44a2.74,2.74,0,0,0-.94,2.06c-.08.72,0,1.71.82,2a1.17,1.17,0,0,0,1.5-.81,4,4,0,0,0,.21-2.63A1.13,1.13,0,0,0,524.51,419.56Z" transform="translate(-439.08 -418.27)"/><path class="cls-1" d="M500.15,421.13a2.14,2.14,0,0,1,3-1.84c.72.36.88,1.22,1.14,1.91-1.08.21-2.17.39-3.27.58.23.66.39,1.64,1.24,1.74s1.47-.44,2-.95c.14,1-1.17,1.62-2,1.58C500.64,424.29,500,422.41,500.15,421.13Zm1.67-1.57c-.83.18-.81,1.15-.85,1.82.76-.11,1.52-.25,2.29-.38C503.06,420.34,502.72,419.26,501.82,419.56Z" transform="translate(-439.08 -418.27)"/><path class="cls-1" d="M537.75,419.49l1.55.52c-.39,1-.73,2-1.13,3,.83-.36,2.12-.65,2.62.36.52,1.61-1.52,3.11-.61,4.69-.68-.26-1.37-.52-2-.82l.78-.19A11.57,11.57,0,0,0,540,423.8c-.13-1-1.73-.85-2,0a22,22,0,0,0-.88,2.47,3.65,3.65,0,0,0,.34.82l-1.93-.71c1-.31,1.1-1.48,1.47-2.32a27.54,27.54,0,0,0,1.26-3.82Z" transform="translate(-439.08 -418.27)"/><path class="cls-1" d="M529.81,419.89c.51.12,1,.22,1.52.32-.05.22-.16.65-.22.86.62-.28,1.31-.7,2-.42a1.16,1.16,0,0,1,.82,1.23c-.14,1.13-.55,2.21-.76,3.34l.55.64c-.71-.15-1.4-.32-2.1-.5.3-.22.75-.36.8-.79a10.26,10.26,0,0,0,.6-2.94c-.31-1-1.82-.65-2.06.22a26.49,26.49,0,0,0-.66,2.66l.54.61c-.64-.14-1.26-.29-1.9-.41.93-.95.94-2.37,1.3-3.57C530.51,420.64,530.08,420.27,529.81,419.89Z" transform="translate(-439.08 -418.27)"/><path class="cls-1" d="M494.63,421.26c.65-.78,1.75-.81,2.67-1,.08.4.16.8.23,1.2-.64-.32-1.4-.89-2.11-.41a.74.74,0,0,0,.05,1.27c.73.31,1.6.2,2.29.62a1.31,1.31,0,0,1,.09,2,5.16,5.16,0,0,1-2.64.72c-.1-.33-.2-.66-.29-1l.38-.12a1.37,1.37,0,0,0,1.83.38c.58-.25.38-.91.22-1.36-.77-.24-1.59-.27-2.34-.57A1.16,1.16,0,0,1,494.63,421.26Z" transform="translate(-439.08 -418.27)"/><path class="cls-1" d="M486.11,423.87c1.67-.78,3.08,1.06,3.14,2.58.27,1.74-2.12,3-3.46,2a3.69,3.69,0,0,1-1.18-2.45A2.18,2.18,0,0,1,486.11,423.87Zm-.21.52a1.48,1.48,0,0,0-.4,1.7,3.59,3.59,0,0,0,1.32,2.09,1.08,1.08,0,0,0,1.6-.71,3.61,3.61,0,0,0-.77-2.58A1.26,1.26,0,0,0,485.9,424.39Z" transform="translate(-439.08 -418.27)"/><path class="cls-1" d="M478.63,424.89c.46-.29.92-.58,1.39-.86,1,1.82,2,3.66,3,5.47.18.47.68.51,1.12.58l-1.41.8-.2-.71-.39-.12a6.9,6.9,0,0,0-1.25-2.53,1.1,1.1,0,0,0-1.73.24,1.81,1.81,0,0,0,.06,1.73,3.35,3.35,0,0,0,1.32,1.6c.65.31,1.35-.31,1.47-.94l.28.51c-.37.45-.69,1-1.3,1.18a1.83,1.83,0,0,1-2-.94,2.84,2.84,0,0,1-.49-3,3.15,3.15,0,0,1,2-1.26C480,425.91,479.75,424.69,478.63,424.89Z" transform="translate(-439.08 -418.27)"/><path class="cls-1" d="M544.52,425.26c1.27-.49,3.1.46,3,1.94a3.55,3.55,0,0,1-1.12,2.42c-1.26,1.24-3.85.08-3.67-1.71A3.37,3.37,0,0,1,544.52,425.26Zm.79.34a3.48,3.48,0,0,0-1.69,2.56c-.27.89.71,1.92,1.58,1.41a3.8,3.8,0,0,0,1.53-2.84A1.15,1.15,0,0,0,545.31,425.6Z" transform="translate(-439.08 -418.27)"/><path class="cls-1" d="M472.9,431.43c.38-.69,1.15-1.54,2-1.06,1,.68,1.37,1.86,2.12,2.72.21.39.7.26,1,.37-.58.39-1.17.78-1.73,1.2,0-.23,0-.7,0-.94a13.94,13.94,0,0,0-1.95-2.7c-.55.08-1.18.22-1.19.91C473.12,431.76,473,431.6,472.9,431.43Z" transform="translate(-439.08 -418.27)"/><path class="cls-1" d="M551.84,431.9a2.67,2.67,0,0,1,2.53-1.63c.94.12,2,1,1.79,2a4.8,4.8,0,0,1-.56,1.46c-.91-.57-1.76-1.23-2.7-1.75a1.63,1.63,0,0,0-.31,2.13,2.34,2.34,0,0,0,1.84.6l.16.37a2.68,2.68,0,0,1-2.82-.94A2.07,2.07,0,0,1,551.84,431.9Zm1.24-.35q1,.72,2,1.35a5.47,5.47,0,0,0,.44-1.35,1.11,1.11,0,0,0-1.12-.84A3.47,3.47,0,0,0,553.08,431.55Z" transform="translate(-439.08 -418.27)"/><path class="cls-1" d="M471,432.5a16.2,16.2,0,0,1,1.27-1.06l.39.75.38,0a7.68,7.68,0,0,0,1.41,2.42c.2.45.72.4,1.13.5-.58.38-1.16.77-1.72,1.19.33-1-.52-1.74-1-2.52S472,432.1,471,432.5Z" transform="translate(-439.08 -418.27)"/><path class="cls-1" d="M558.93,433.09c.44.33.88.68,1.31,1l-.62.62c.71.06,1.61-.06,2.08.61.37.35.18.89.22,1.33.82-.07,1.85,0,2.21.9s-.55,1.58-1.06,2.21-1.45,1.28-1.1,2.27c-.53-.46-1.06-.92-1.6-1.37l.89-.13a14.61,14.61,0,0,0,1.94-2.35c.51-.92-.87-1.65-1.58-1.11a12.16,12.16,0,0,0-1.88,2.17c0,.22,0,.66,0,.89-.52-.47-1.05-.93-1.57-1.38,1,.18,1.46-.82,2-1.42.39-.53,1.11-1.1.82-1.83a1.29,1.29,0,0,0-2.08.1c-.58.8-1.76,1.5-1.4,2.64q-.79-.7-1.62-1.38c.35-.08.82,0,1.07-.31.77-.83,1.5-1.71,2.21-2.6Z" transform="translate(-439.08 -418.27)"/><path class="cls-1" d="M466.65,436.9c.5-.93,1.08-2.13,2.27-2.24,1.3.54,1.9,2,2.92,2.9l.81-.08c-.36.35-.73.68-1.1,1l-.5-.63a2.47,2.47,0,0,1-1.05,2,1.17,1.17,0,0,1-1.76-1c.06-1,.9-1.7,1.52-2.4-.46-.42-1-1.23-1.69-.85-.61.23-.66.89-.57,1.45l-.38.48Zm2.35,1a1,1,0,0,0,.4,1.33c.78.18,1.43-.7,1.3-1.42a5.42,5.42,0,0,0-.67-1.08A5,5,0,0,0,469,437.87Z" transform="translate(-439.08 -418.27)"/><path class="cls-1" d="M462.48,439.88c.36-.49.91-1.18,1.61-.89,1.16.53,1.84,1.7,2.89,2.39l.82,0-.26.26-1.05,1.07-.22-.54a8.86,8.86,0,0,0-2-2.05.83.83,0,0,0-1.38.25Z" transform="translate(-439.08 -418.27)"/><path class="cls-1" d="M462.32,440.46l.42-.11a1.67,1.67,0,0,0,.65,1.76c.73.56,1.31,1.67,2.4,1.39-.5.5-1,1-1.46,1.52,0-.23-.07-.67-.09-.89A12.42,12.42,0,0,0,461.9,442c-1-.37-1.51,1-1,1.67a12.44,12.44,0,0,0,2,1.93l.86,0c-.49.51-1,1-1.46,1.56,0-.2,0-.6-.06-.8a22.62,22.62,0,0,0-2.73-2.63l-.8.27a12.77,12.77,0,0,1,1-1.3l.58.68c.09-.71.07-1.58.72-2,.38-.34.92-.16,1.37-.19Z" transform="translate(-439.08 -418.27)"/><path class="cls-1" d="M569.07,442.68l1,1.14-.78.59a2.23,2.23,0,0,1,2.2,1.09,12.41,12.41,0,0,1-1,.82c-.17-.56,0-1.48-.73-1.59s-1.23.35-1.72.75-1.57,1.06-1.29,2c-.46-.58-.93-1.14-1.42-1.69l.82.06a21,21,0,0,0,2.58-2.13C569.15,443.52,569,443,569.07,442.68Z" transform="translate(-439.08 -418.27)"/><path class="cls-1" d="M456.73,447.93a2.25,2.25,0,0,1,.6-2.39,10.23,10.23,0,0,1,1,.73c-.51.31-1.55.37-1.39,1.19.21,1.06,1.36,1.51,2.11,2.14.38.41.88.17,1.33,0-.44.61-.89,1.2-1.37,1.76.1-1-.9-1.4-1.53-1.93s-1.44-1.42-2.41-.86l.92-1.32Z" transform="translate(-439.08 -418.27)"/><path class="cls-1" d="M569.83,449.63a3.42,3.42,0,0,1,2.65-1.54,2.08,2.08,0,0,1,2,2.5A4.39,4.39,0,0,1,573.3,452c-.65-.87-1.26-1.78-1.92-2.66-.53.45-1.24,1-1.06,1.78s.92,1.18,1.61,1.41l-.13.39a3,3,0,0,1-1.89-1.17A1.79,1.79,0,0,1,569.83,449.63Zm1.88-.58c.43.67.89,1.31,1.36,1.95a6.21,6.21,0,0,0,.8-.9,1,1,0,0,0-.92-1.39A5.44,5.44,0,0,0,571.71,449.05Z" transform="translate(-439.08 -418.27)"/><path class="cls-1" d="M453.5,451.41a3,3,0,0,1,3.22,1.25,2.3,2.3,0,0,1-1.56,3.5,3.5,3.5,0,0,1-2.75-1.58A2.36,2.36,0,0,1,453.5,451.41Zm-.47.89a1.24,1.24,0,0,0,.16,1.95,3.54,3.54,0,0,0,2.61,1.08,1.17,1.17,0,0,0,.43-2C455.45,452.56,454.14,451.68,453,452.3Z" transform="translate(-439.08 -418.27)"/><path class="cls-1" d="M575.75,453.91c-.08-.36-.19-.79.35-.77a4.15,4.15,0,0,1,1.68,1.59,1.19,1.19,0,0,1-.16,1.48c-.88.79-2.06,1.14-2.94,1.92,0,.2-.11.61-.15.81-.25-.41-.51-.81-.77-1.22l.66-.43c-.76-.28-1.71-.7-1.8-1.63a1.19,1.19,0,0,1,1.55-1.27c.89.31,1.39,1.18,2,1.87.53-.39,1.44-.84,1.07-1.66C577,454,576.31,453.94,575.75,453.91Zm-2.47,1.76a1.31,1.31,0,0,0,.91,1.19c.56.3,1.09-.21,1.61-.41a4.77,4.77,0,0,0-1.27-1.34A1,1,0,0,0,573.28,455.67Z" transform="translate(-439.08 -418.27)"/><path class="cls-1" d="M448.65,454.41c.29.23.57.46.85.71-.37.16-.88.14-1.1.54-.22.92.86,1.24,1.46,1.65.31-.38.4-1.2,1.08-1-.2.41-.41.81-.62,1.22,1.14.55,2.2,1.24,3.38,1.69a6.06,6.06,0,0,0,.84-.32,15.51,15.51,0,0,1-1.1,1.95c0-.2-.1-.6-.13-.8-1.12-.61-2.25-1.19-3.37-1.78l-.36.63c.16-1.15-1.37-1.24-1.53-2.26A3,3,0,0,1,448.65,454.41Z" transform="translate(-439.08 -418.27)"/><path class="cls-1" d="M581.63,457c.29.47.57,1,.85,1.44-2,1-4.09,2-6.09,3,0,.21-.1.63-.14.84a18.27,18.27,0,0,1-1-2.1l.63.44a29,29,0,0,0,2.89-1.34,20.19,20.19,0,0,0,2.8-1.47C581.59,457.63,581.62,457.2,581.63,457Z" transform="translate(-439.08 -418.27)"/><path class="cls-1" d="M448.22,460.76a3.53,3.53,0,0,1,1,.7c-.55.2-1.34.26-1.46,1a.8.8,0,0,0,.67,1.12c.83-.25,1.29-1.09,2.06-1.45a1.31,1.31,0,0,1,1.74,1.09,4.78,4.78,0,0,1-1.05,2.57c-.37-.15-.74-.31-1.1-.48.51-.39,1.34-.4,1.59-1.08.18-.42.16-1.08-.36-1.24-.88-.29-1.37.71-2,1.1a1.19,1.19,0,0,1-1.91-.38A3.65,3.65,0,0,1,448.22,460.76Z" transform="translate(-439.08 -418.27)"/><path class="cls-1" d="M582.63,462l1-.35c0,.28.13.56.17.85-.27.14-.53.25-.8.37C582.85,462.61,582.75,462.32,582.63,462Z" transform="translate(-439.08 -418.27)"/><path class="cls-1" d="M581.37,461.84l.69,1.39c-1.3.61-2.67,1-3.93,1.73l-.34.75c-.29-.63-.57-1.27-.85-1.9.36.12.76.38,1.15.18.92-.37,1.85-.74,2.74-1.17C581.26,462.69,581.21,462.17,581.37,461.84Z" transform="translate(-439.08 -418.27)"/><path class="cls-1" d="M580.35,466.92a2.67,2.67,0,0,1,3,.33,3.12,3.12,0,0,1,.66,2.05c.83-.33,2.1-.35,2.13-1.52l.57,1.52c-2.14.72-4.3,1.38-6.42,2.13-.06.23-.16.67-.21.89-.23-.5-.43-1-.63-1.52l.87-.2c-.6-.43-1.4-.85-1.47-1.68S579.55,467.24,580.35,466.92Zm.68.74a2.72,2.72,0,0,0-1.4.92,1.27,1.27,0,0,0,1.42,1.69,6.84,6.84,0,0,0,2.4-1,1.27,1.27,0,0,0-.61-1.76A2.76,2.76,0,0,0,581,467.66Z" transform="translate(-439.08 -418.27)"/><path class="cls-1" d="M445.26,467.77a1.2,1.2,0,0,1,1.45-.76c1.06.25,2.07.69,3.13,1l.68-.51a21.45,21.45,0,0,1-.66,2.06l-.4-.69a11.39,11.39,0,0,0-3-.95c-1.06-.08-1.11,1.48-.37,1.94a17.5,17.5,0,0,0,2.83,1l.71-.5q-.36,1-.69,2.07c-.21-.3-.28-.76-.69-.85-1.06-.4-2.14-.72-3.21-1.07l-.73.54c.13-.51.27-1,.41-1.53l.82.3A2.79,2.79,0,0,1,445.26,467.77Z" transform="translate(-439.08 -418.27)"/><path class="cls-1" d="M584.18,473.47c.88,0,1.23.87,1.53,1.54s.3,1.58-.43,1.9c-1,.42-2.12.47-3.14.82-.39.06-.44.54-.64.8-.12-.47-.23-.93-.35-1.39l.76-.15c-.67-.54-1.48-1.29-1.22-2.25a1.21,1.21,0,0,1,2-.51,4.85,4.85,0,0,1,1.17,2.27c.62-.19,1.69-.39,1.54-1.27,0-.64-.61-.86-1.1-1.06Zm-2.93,2a1.6,1.6,0,0,0,1.12,1.34l1.09-.26a4,4,0,0,0-.79-1.6C582.2,474.52,581.22,474.75,581.25,475.46Z" transform="translate(-439.08 -418.27)"/><path class="cls-1" d="M443.26,474.61a1.13,1.13,0,0,1,1-.93c1.23.05,2.39.56,3.62.62l.54-.52c-.09.49-.19,1-.29,1.48l-.75-.24c.36.76.8,1.76.18,2.52a1.19,1.19,0,0,1-2-.25,6.34,6.34,0,0,1-.13-2.64,5.57,5.57,0,0,0-1.35-.07c-.48.11-.6.66-.63,1.08a5.1,5.1,0,0,1,.64,1.43l-.82-.1A6.81,6.81,0,0,1,443.26,474.61Zm2.59.13a4.9,4.9,0,0,0,0,1.83.83.83,0,0,0,1.43.24,1.57,1.57,0,0,0,0-1.29C447,475,446.37,474.93,445.85,474.74Z" transform="translate(-439.08 -418.27)"/><path class="cls-1" d="M442.32,479.15l1.14.12,0,.37c-.36.33-.88.7-.57,1.25.64,1,2,.76,3,1,.49.16.77-.32,1.11-.57-.1.7-.21,1.4-.31,2.1-.29-.29-.53-.7-1-.69a24.09,24.09,0,0,0-3.17-.4c-.23.18-.43.38-.64.57.05-.51.1-1,.14-1.52l.94.12A2.57,2.57,0,0,1,442.32,479.15Z" transform="translate(-439.08 -418.27)"/><path class="cls-1" d="M582,481.51a2.15,2.15,0,0,1,1.87-1.4,2.6,2.6,0,0,1,2.76.79,3.41,3.41,0,0,1,.41,2.26c.84-.18,2,0,2.31-1,.09.51.17,1,.26,1.54-2.08.27-4.16.51-6.24.8-.5,0-.66.5-.92.81l-.21-1.49.87-.12C582.43,483.13,581.71,482.41,582,481.51Zm.47.7c.25.68.77,1.51,1.62,1.29s2.09.05,2.56-.89a1.28,1.28,0,0,0-1.1-1.64C584.39,480.84,582.86,481,582.42,482.21Z" transform="translate(-439.08 -418.27)"/><path class="cls-1" d="M439.64,484.49c.64,0,1.27.06,1.9.11-.24.61-1,.54-1.42,1a4.43,4.43,0,0,0-.19,1.21c1.86.11,3.73.26,5.6.27.49.06.68-.49,1-.77,0,.85-.11,1.7-.16,2.56-.25-.3-.37-.81-.84-.8-1.88-.25-3.8-.14-5.68-.35a5.33,5.33,0,0,0,.12,1.26c.42.4,1,.56,1.37,1.06-.65,0-1.3,0-1.95,0C439.4,488.15,439.59,486.32,439.64,484.49Z" transform="translate(-439.08 -418.27)"/><path class="cls-1" d="M583.45,487.39a3.43,3.43,0,0,1,3.15.05,2.08,2.08,0,0,1,.23,3.34,5.4,5.4,0,0,1-1.63.44c0-1.12-.08-2.23-.09-3.35-.68.17-1.64.16-1.92.95s.22,1.56.64,2.22C582.25,490.77,582,488.1,583.45,487.39Zm2.06.5c0,.78,0,1.58.07,2.37.58-.14,1.65-.21,1.59-1C587.31,488.27,586.2,488.05,585.51,487.89Z" transform="translate(-439.08 -418.27)"/><path class="cls-1" d="M439.08,496.24a4.59,4.59,0,0,0,2.46.22c0,.26.09.52.14.78A2.14,2.14,0,0,1,439.08,496.24Z" transform="translate(-439.08 -418.27)"/><path class="cls-1" d="M587.4,497.07a2.39,2.39,0,0,1,2.41,1.42,5.41,5.41,0,0,0-2.52-.6C587.33,497.62,587.36,497.34,587.4,497.07Z" transform="translate(-439.08 -418.27)"/><path class="cls-1" d="M439.15,498.06a8.29,8.29,0,0,0,2.58.1V499A2.54,2.54,0,0,1,439.15,498.06Z" transform="translate(-439.08 -418.27)"/><path class="cls-1" d="M587.18,498.78a2.1,2.1,0,0,1,2.37,1.44,4.7,4.7,0,0,0-2.42-.65C587.14,499.37,587.17,499,587.18,498.78Z" transform="translate(-439.08 -418.27)"/><path class="cls-2" d="M466.49,442.68l1.05-1.07a12.41,12.41,0,0,1-1.3,1.41l0-.88Z" transform="translate(-439.08 -418.27)"/><path d="M474.26,456.73a13.16,13.16,0,0,1,2.43,0l-.13.34.32-.17v.17c.23.18.44.37.66.56s.21.61.31.92l.17,0c0,.78,0,1.57,0,2.35l-.23-.07c0,.47,0,.95,0,1.42l.3,0-.13.44.32,0-.08.45h.32l-.08.44.19,0,.6.91h.06c.27.36.57.71.86,1.06s.54.42.82.62l0,.06.36.33.17-.08-.05.31.43,0c0,.11,0,.34,0,.46l.43,0,0,.29.44-.1v.32h.31a13.6,13.6,0,0,0,1.18,1.22l.39.18-.05.23.45-.12,0,.33.42-.08,0,.3.29,0c.19.2.38.39.59.58l.05.3h.44l0,.28.31-.06-.07.32.44-.11,0,.32.3-.09,0,.31.44-.06v.3l.44,0,0,.44.46,0,0,.31.43-.06,0,.3.43-.06c0,.11,0,.35.05.46l.44-.06,0,.22c.21.09.41.19.61.3l.29.25c.19.13.38.26.56.41s.41.2.63.3l0,.21.44-.09,0,.31h.34a.74.74,0,0,0,.77.45c.34-.34.61-.75.93-1.11l0-.3.17.05.24-.37.34-.47.23-.37.08,0,.63-.9h.07c.27-.39.56-.76.84-1.15h.08c.2-.31.41-.61.61-.91l.2,0-.12-.29.29,0,0-.29.51-.61h.15c0-.08,0-.23,0-.31L500,468l.14,0c0-.11,0-.32,0-.43l.44,0c0-.12,0-.34,0-.45l.2,0,.35-.6.25-.35.07,0,.33-.53,0-.17.28,0c0-.11,0-.33-.05-.44l.46-.06,0-.42h.21l.35-.7.07,0,.34-.35,0-.16.72.06c0,.12-.08.35-.1.46l.25,0c0,2.14.1,4.27.09,6.41l.18-.08c0,1.47,0,2.95,0,4.42l.18-.1c0,1.1.05,2.2,0,3.31l.19-.13c0,1.48.06,2.95.05,4.43l.18-.09c0,1.31.08,2.61.08,3.92l.19-.06c0,.31,0,.62,0,.94-.22,2.33.26,4.65.28,7,.06,2.81.25,5.62.5,8.42.13,3.73.57,7.43.65,11.16a6.17,6.17,0,0,0,.39,2.12c0,1.61.06,3.22.07,4.83l.18-.07c-.07,1.94.37,3.85.26,5.8l.17-.09c0,1.61.06,3.22.08,4.83l.19-.06c0,.92,0,1.85,0,2.78l.16,0c0,2.06,0,4.12.07,6.18l.19-.08c0,.87,0,1.74,0,2.61l.17-.08c0,.87,0,1.74,0,2.62l.19-.1c0,1.24.07,2.47.07,3.7l.16,0c0,1.09.05,2.18,0,3.27l.18-.1c0,1.17.07,2.33.06,3.5l.18-.08c0,1.85.05,3.71,0,5.56l.18-.1c0,.72,0,1.45,0,2.17l.18-.13c-.08,1.26.32,2.47.26,3.72l-.67,0q0-.5,0-1l-.2,0v-.71l-.24,0c0-.18,0-.55,0-.73l-.22,0v-.73l-.22.07c0-.32,0-.64,0-1l-.21,0v-.74l-.17.08c-.07-.44-.17-.86-.28-1.29l-.19.14c0-.4-.05-.81-.07-1.21l-.2.07v-.78l-.17.11c-.1-.56-.26-1.11-.36-1.68l-.17.08c0-.19,0-.57,0-.75l-.22.07c0-.33,0-.66,0-1l-.29,0,.15-.47-.28,0c0-.33,0-.65,0-1L506,554c0-.12.11-.35.14-.47h-.28c0-.32,0-.63,0-.95l-.22,0c0-.18,0-.54,0-.72l-.21,0c0-.33,0-.65-.05-1l-.33,0a18.76,18.76,0,0,0-.61-2.77l-.17.06c0-.19,0-.56,0-.75l-.25.08v-.75l-.22.05c0-.19,0-.57,0-.76l-.24.08c0-.18,0-.54,0-.71l-.22,0c0-.18,0-.55,0-.73l-.31,0,.16-.44h-.27c0-.32,0-.64,0-1l-.23.06c0-.18,0-.54,0-.71l-.21,0,0-1-.3.07c0-.12.12-.36.17-.48h-.29c0-.32,0-.64,0-1l-.23.07c0-.19,0-.56,0-.75l-.22.06c0-.32,0-.64,0-1l-.22,0v-.74l-.24.07v-.74h-.29l.18-.45-.32,0c0-.18,0-.54,0-.72l-.22,0v-.73l-.24.08c0-.19,0-.56,0-.74l-.21,0c0-.33,0-.65,0-1l-.22.11v-.75l-.22,0c0-.19,0-.56,0-.75l-.18.08c-.11-.57-.27-1.11-.35-1.68l-.18.08c0-.18,0-.56,0-.75l-.22.07c0-.32,0-.64,0-1l-.27,0c0-.12.1-.36.13-.47l-.29.05v-.76l-.22,0v-.75l-.23.09v-.74l-.21,0v-.73l-.24.06c0-.18,0-.55,0-.74l-.21,0c0-.33,0-.65-.05-1l-.22.11c0-.19,0-.58,0-.77l-.22,0c0-.18,0-.55,0-.74l-.17.09c-.13-1-.68-2-.83-3l-.23.07c0-.12.11-.36.14-.48l-.22,0c-.11-.81-.49-1.54-.6-2.35l-.15.06v-.72l-.16,0c-.07-.49-.22-1-.33-1.44l-.17.06c0-.32,0-.65,0-1l-.22.06v-.74l-.24.07c0-.19,0-.56,0-.75l-.23.06v-.77l-.24.09c0-.18,0-.55,0-.74l-.23.06v-.77l-.23.09c0-.19,0-.55,0-.73l-.2,0c0-.32,0-.65,0-1l-.3.06c0-.12.12-.35.15-.47h-.26c0-.33,0-.65,0-1l-.28.06c0-.12.1-.35.13-.47h-.27l0-1-.22.07v-.73l-.23.05,0-.75-.23.07c0-.19,0-.58,0-.77l-.24.1c0-.19,0-.57,0-.76l-.23.05c0-.19,0-.57,0-.77l-.18.11c-.09-.49-.22-1-.33-1.44l-.19.06v-.72l-.22,0v-.71l-.23.06a11.44,11.44,0,0,1,0-2.11l.17,0c.26-.4.55-.78.82-1.18l.19,0c0-.11,0-.34,0-.45l.18,0c.06-.09.18-.27.25-.36l.3-.6h.12c.12-.23.23-.46.34-.69h.11l.34-.59c.06-.09.18-.27.25-.36l.21,0-.08-.45.21,0c.05-.09.18-.27.23-.36l.33-.49.25-.37.2,0c0-.11-.07-.33-.09-.45l.33,0-.1-.3.29,0,0-.45.21,0c.05-.09.17-.27.23-.36l.33-.59h.21l-.08-.46.22.05.24-.35c.1-.21.21-.42.32-.63l.21,0,0-.34c.43-.13.46-.53.47-.92-.4-.29-.77-.61-1.17-.89v-.06L494,487v-.07c-.4-.27-.77-.57-1.17-.83l0-.19-.43,0c0-.11,0-.32-.05-.43h-.44l0-.3-.3.08.07-.3-.89.07c0,.46,0,.91-.05,1.37l-.22,0c0,.32,0,.64,0,1l-.21-.09c0,.33,0,.65,0,1l-.2-.05,0,1-.22-.07v1l-.21,0c0,.2,0,.58,0,.77l-.23-.1c0,.31,0,.63,0,1h-.21c0,.18,0,.55,0,.73l-.23-.07c0,.31,0,.63,0,.94h-.2c0,.19,0,.56,0,.75l-.23-.09,0,1h-.25c0,.12.1.35.14.47l-.27,0c0,.39,0,.78-.08,1.18l-.19-.05c0,.32,0,.65,0,1l-.22-.1c0,.19,0,.59,0,.79l-.17-.09c-.08.71-.3,1.39-.38,2.1l-.18-.08c0,.19,0,.57,0,.76l-.21,0v.76l-.24-.1c0,.33,0,.66,0,1l-.2,0c0,.32,0,.64,0,1l-.17-.08c-.07.5-.2,1-.3,1.48l-.17-.09-.06,1.19-.2-.05v1l-.24-.07c0,.2,0,.58,0,.77l-.18-.07a5.94,5.94,0,0,1-.48,1.94c0,.28-.05.56-.07.84l-.39,0c0,.12,0,.35,0,.47l-.46,0v.31l-.44-.12,0,.3h-.73v.28l-.43-.11v.33l-.45-.07,0,.3-.45-.13,0,.22c-.54.18-1.06.43-1.6.63l0,.18-.46-.11,0,.22c-.32.1-.63.22-.95.34l.06.2h-1l0-.46-.22,0c-.12-.47-.25-.94-.33-1.43l-.18.06c0-.19,0-.57,0-.76l-.25.08,0-.75-.16.06c-.13-.73-.4-1.41-.58-2.12l-.18.07v-.73l-.21,0c0-.19,0-.56,0-.75l-.23.1,0-1-.19,0a10.12,10.12,0,0,1,.27-3.95l.15.1c0-.32,0-.64,0-1l.19,0c0-.32,0-.64,0-.95l.16.07c.13-.88.45-1.71.59-2.58l.15.06c0-.33,0-.65,0-1l.16.07c.14-.87.44-1.7.59-2.57l.11.08c.11-.63.29-1.25.35-1.9l.13.09c.1-.5.23-1,.31-1.49l.17.11c0-.33,0-.66,0-1l.2,0c0-.19,0-.57,0-.76l.23.1,0-1,.2,0v-.77l.22.11,0-1,.21,0v-1l.18.06c.06-.64.25-1.25.35-1.88l.16.06v-.75l.18.1c.06-.65.24-1.28.36-1.92l.16.1c0-.33,0-.66,0-1h.26c0-.11-.1-.34-.14-.46l.29.06c0-.33,0-.66,0-1l.21.05c0-.33,0-.65,0-1l.22.08c0-.32,0-.65,0-1l.25,0-.12-.49.28.07a6,6,0,0,1,.31-2.31h-.29c0-.11,0-.34,0-.45h-.44c0-.11,0-.34,0-.46h-.32c0-.1.08-.32.11-.43l-.26,0c0-.24,0-.73,0-1l.14,0c.1-.32.22-.62.33-.93h.24c0-.11-.07-.32-.1-.43h.27a3.66,3.66,0,0,0,.34-1.17l-.54,0,0-.29-.29.06c0-.11,0-.34,0-.45l-.44,0v-.42l-.69-.05,0-.27-.45.1v-.35l-.44.15v-.27l-1-.06.08-.28-.47.1v-.25l-.74,0,.08-.25h-.74l0-.21h-1l.08-.2c-.63,0-1.26-.06-1.89,0l0,.28h-.3a2.18,2.18,0,0,1-1.32.73l.05.14a20.13,20.13,0,0,1-2.33,0l0-.3-.45.13,0-.2-.37-.34-.18.06.1-.31-.25.07c0-.13-.07-.4-.09-.53a10.8,10.8,0,0,1,0-4.2c0-.27.05-.54.07-.8l.24.08-.1-.32.32,0c0-.11-.08-.33-.11-.44h.24c.13-.3.26-.6.38-.9l.1,0c0-.09.13-.28.18-.37a13,13,0,0,1,1.88-1.83h.05l.58-.53H473l-.07-.26.72,0,0-.22h.78Zm9.21,14.42,0,.41-.3,0,.08.17-.34.37-.15-.05c0,.39,0,.78-.05,1.18l.5-.08v.31l.43-.07v.3l.47-.05c0,.12,0,.34,0,.46l.45-.05,0,.21.71.35,0,.12.7.35,0,.21.3-.11-.05.32.44-.06v.31l.3-.11-.05.31.45,0v.28l.43-.05,0,.46.46-.05-.06.3.31-.09,0,.32L489,477l0,.3.29-.08,0,.32.45-.08,0,.31.3-.09,0,.32.45-.09,0,.31.3-.09,0,.32.44-.07,0,.19.35.31h.44l-.06-.15.32-.37.17.06c0-.07,0-.23,0-.3a1.51,1.51,0,0,0,.69-1.29l-.34,0,.05-.3-.43.09,0-.33-.3.1.05-.32-.45.07,0-.21-.35-.26-.65-.28,0-.23-.43.08,0-.28-.3,0c-.33-.28-.66-.56-1-.85h-.32l0-.29-.3.1,0-.32-.46.07,0-.3-.3.09.05-.32-.45.08,0-.31-.41.05v-.3l-.45.05,0-.46-.44,0,0-.3-.33.12.1-.27-1-.06.08-.27-.18.09-.35-.34.07-.15Z" transform="translate(-439.08 -418.27)"/><path d="M550.91,457.23l.43,0,0-.25a12.93,12.93,0,0,1,3.23,0l0,.21h.74l-.1.29.32-.12,0,.31.44,0,0,.45.44,0,0,.15a6.89,6.89,0,0,1,1,1l.31,0c0,.11,0,.33,0,.44l.3-.05-.09.3.31,0c0,.11,0,.33-.06.43h.31l-.11.3.33-.06-.08.45.3,0c0,.11,0,.33-.07.44l.35,0c0,.1-.1.32-.13.43h.25c0,.19,0,.56,0,.74l.29-.05c0,.12-.1.35-.14.46l.45,0-.38.45.5-.08-.13.75.34-.65c0,1,0,1.91-.06,2.86l-.59,0-.34.72-.09-.05-.32.37.06.19-.31-.09,0,.33-.46-.13,0,.29a20.64,20.64,0,0,1-2.36,0l.08-.23h-.73v-.27l-.43.07c0-.12,0-.36-.06-.48l-.43,0,0-.29c-.56,0-1.11,0-1.66,0l.09.2-1.19,0,0,.2h-.74l.07.24h-.75V468l-.47-.13.07.28-.62.05-.82.29,0,.22-.47-.12v.27l-.69,0c0,.11,0,.32,0,.42l-.31,0,.1.31-.18-.07-.36.34.06.19-.48-.09c0,.32,0,.64,0,.95l.3-.05-.08.3.32,0c0,.11-.1.33-.13.44h.24c.12.3.25.59.37.9h.12c0,.24,0,.72,0,1H547c0,.11.08.33.11.44h-.21c-.19.26-.39.5-.56.77a8,8,0,0,0,.32,3.12l.15,0c0,.19,0,.57,0,.76l.23-.1c0,.32,0,.65,0,1l.2,0c0,.32,0,.64,0,1l.23-.1c0,.19,0,.57,0,.76l.2,0c0,.4.05.79.08,1.18L548,482c0,.12-.12.36-.17.48h.27c0,.33,0,.65,0,1l.22-.1c0,.32,0,.65,0,1l.15,0c.09.56.25,1.1.35,1.66l.14-.07c0,.54.06,1.08.1,1.62l.31,0a15.86,15.86,0,0,0,.37,1.92l.16-.09v1l.21,0c0,.18,0,.55,0,.73l.22-.08c0,.33,0,.65,0,1h.26c0,.12-.11.36-.14.48l.28-.07c0,.4,0,.8.06,1.2l.13,0c.11.56.29,1.09.38,1.65l.15-.05c0,.32,0,.64,0,1l.22-.09,0,1,.2-.06c0,.4,0,.8.05,1.21l.29-.05-.16.46h.27c0,.33,0,.65,0,1l.17-.08a11.64,11.64,0,0,1,.36,2.11l.24-.12-.14.35.25-.06c0,.4,0,.8,0,1.2l.23-.07c0,.19,0,.58,0,.78l.23-.08c.2,1.22-.48,2.3-.53,3.49l-.16-.12a10.78,10.78,0,0,0-.29,1.25l-.22,0c0,.12.1.35.13.47l-.28-.05c0,.32,0,.65,0,1h-.27l.14.46-.28-.06c0,.32,0,.65,0,1l-.22-.06,0,1-.3-.05c0,.12.13.35.17.46h-.21a5.18,5.18,0,0,1-.35,1.16l-.9,0,0-.31-.43.09,0-.32-.45.11.06-.29h-.74v-.27l-.46.09,0-.33-.45.09,0-.31-.47.13.06-.29-.74,0,0-.27-.32.14.08-.2-.83-.34-.31.07v-.33l-.45.1,0-.33-.45.1.06-.32-.2.05-.32-.54v-.63l-.17.05c0-.47,0-.94-.08-1.4l-.38,0q0-.6-.06-1.2l-.24.08,0-.75-.2.05c0-.4,0-.8,0-1.2l-.22.07v-.75l-.22.06v-1l-.21.05,0-.95-.22.06c0-.32,0-.64,0-1h-.28l.16-.47-.28.07-.06-1.22-.18.07c0-.16,0-.48-.06-.64a4.6,4.6,0,0,1-.27-1l-.14.07c0-.33,0-.65,0-1l-.23.07c0-.19,0-.57,0-.75l-.21.06c0-.48-.06-.95-.08-1.41l-.2.07a6.75,6.75,0,0,1-.25-1.47l-.13.1c-.06-.28-.13-.55-.21-.82-.12-.52-.27-1-.36-1.54l-.15.06c0-.33,0-.65,0-1l-.23.07V490l-.22.06c0-.32,0-.65,0-1l-.22.07c0-.19,0-.56,0-.75l-.22.07c0-.4,0-.8,0-1.2l-.21.08c0-.33,0-.66,0-1l-.17.08a14,14,0,0,0-.55-2.32l-.44,0,0,.27-.43,0,0,.47-.43,0,0,.15c-.2.17-.39.35-.58.53l-.31,0,.06.3-.3-.11,0,.3-.43,0,0,.44-.45,0v.15L533,487l-.28,0,0,.16-.37.27c-.2.11-.4.22-.59.34l0,.21-.18-.09-.36.34.07.17-.28-.05c0,.24,0,.72,0,1l.28-.06-.08.3.31,0-.08.44.32,0-.1.29.3,0c0,.07,0,.23,0,.3.28.33.55.67.84,1a2.83,2.83,0,0,0,0,.29h.18c.12.23.24.46.35.7h.12c.11.23.22.46.34.69h.2c0,.11,0,.33,0,.43l.32.05a10.05,10.05,0,0,0,.71,1.23l.46.65c.24.34.48.67.74,1l0,.28.12,0,.51.59,0,.31h.16c.17.27.34.52.53.78l.32.61.19,0c0,.55,0,1.1,0,1.65l-.22-.09,0,1-.22-.07c0,.19,0,.57,0,.76l-.24-.09c0,.19,0,.57,0,.76l-.21,0c0,.32,0,.64,0,1l-.3,0c.05.11.13.34.17.45h-.28v.73l-.24-.09,0,.73h-.15c-.12.47-.27.92-.35,1.39l-.08,0c-.08.47-.23.93-.35,1.4l-.16,0,0,1-.23-.08c0,.19,0,.57,0,.76L535,510c-.09.55-.26,1.1-.36,1.65l-.18-.07c0,.19,0,.56,0,.75h-.29l.16.47-.25-.07c-.09.49-.23,1-.35,1.45l-.17-.08c0,.32,0,.64-.05,1h-.27c.05.11.13.34.17.45l-.3,0c0,.32,0,.64,0,1l-.21-.05c0,.19,0,.56,0,.75l-.18-.1a11.26,11.26,0,0,1-.38,1.52c-.08.28-.15.56-.21.85l-.15-.08,0,1-.29,0,.16.45-.3,0v.75l-.22,0c0,.18,0,.54,0,.72l-.16-.07c-.09.49-.23,1-.34,1.44l-.11-.09c-.09.49-.22,1-.34,1.46l-.17-.07,0,1-.21,0v.74l-.24-.08c0,.19,0,.57,0,.76l-.22-.06c0,.32,0,.64,0,1l-.3,0,.17.45h-.27c0,.39-.06.78-.08,1.17l-.28-.1.16.34-.21,0c-.09.48-.23.94-.36,1.4l-.1,0c-.09.47-.24.94-.37,1.4l-.17,0c0,.19,0,.56,0,.74l-.22-.06c0,.19,0,.57,0,.76l-.22-.07c0,.32,0,.64,0,1l-.22-.06v.74l-.24-.07c0,.19,0,.56,0,.75l-.23,0V537l-.24-.09c0,.18,0,.56,0,.75l-.21-.06c0,.32,0,.64,0,1l-.16-.08c-.18.7-.45,1.38-.6,2.1l-.14,0v.76l-.23-.1v.74l-.22,0c0,.18,0,.56,0,.74l-.18-.06c-.11.55-.27,1.09-.36,1.65l-.12-.07c-.11.47-.26.94-.34,1.43l-.16-.05v.75l-.23-.1V547l-.23,0v.76l-.24-.1c0,.18,0,.55,0,.73h-.14c-.18.78-.49,1.52-.62,2.3l-.18-.08c0,.19,0,.56,0,.74l-.22,0V552l-.25-.08,0,.74-.22,0,0,1-.23-.08c0,.19,0,.57,0,.76l-.23-.06c0,.19,0,.56,0,.75l-.23-.05c0,.18,0,.56,0,.74l-.16-.1c-.09.49-.22,1-.34,1.45l-.12-.06c-.08.49-.22,1-.34,1.44l-.17-.07,0,1-.21,0V560l-.24-.08c0,.2,0,.58,0,.77l-.22,0c0,.19,0,.56,0,.75l-.18-.1c-.09.56-.26,1.11-.35,1.67l-.18-.07v.75l-.23-.05c0,.19,0,.56,0,.75l-.22-.06c0,.31,0,.63,0,.95l-.24,0,.09.28-.54,0c0-.87,0-1.74,0-2.61l.15,0c0-.64,0-1.28,0-1.92.36-1.77.2-3.6.39-5.39.15-3,.44-5.9.52-8.86,0-.84,0-1.67,0-2.51l.19.09c0-1,0-1.89,0-2.84l.18.08c0-2.29.09-4.58.09-6.87l.18.11c0-1.25.06-2.49,0-3.74l.17.08c0-1.54.13-3.09,0-4.64l.22.14c0,.53,0,1.07,0,1.6a34.74,34.74,0,0,0,.22-4.08c.07-2.28.28-4.56.44-6.84,0-2.88.46-5.74.52-8.63.11-2.36.4-4.71.46-7.08a45.12,45.12,0,0,0,.19-5.7c0-.58,0-1.17,0-1.75l.19.1c0-1.47.06-2.94,0-4.42l.17.09c0-1.32.06-2.64,0-4l.2.11c0-1.25,0-2.5,0-3.74l.16.06c0-1.89.08-3.78,0-5.68.11,1.55.2,3.09.27,4.64-.05-2,0-3.91,0-5.87l.16.07c0-1.25.06-2.49,0-3.73l.19.11c0-1.47.07-2.93.06-4.4l.17.05c0-1.31.07-2.63,0-3.95l.28.11-.13-.31.75.07,0,.41.3,0-.07.29.3,0,0,.45.46,0,0,.43h.28v.43l.42,0c0,.11,0,.34,0,.45l.22,0c.11.24.22.48.34.72l.2,0c0,.11,0,.33,0,.45l.43,0c0,.11,0,.33,0,.44h.29c0,.11,0,.33,0,.43l.44.05c0,.11,0,.33,0,.44h.18c.22.31.46.6.71.9l.25.35c.26.31.54.61.8.92l.2.38.21-.07,0,.45.45.05c0,.11,0,.32,0,.43l.3,0-.1.29.19,0c.21.3.42.59.62.9h.1l.35.69h.21c0,.11,0,.33-.05.44l.45.05c0,.11,0,.33-.05.44l.22,0c.12.23.24.46.35.7l.21,0-.09.3.3-.07,0,.44.71.08,0-.19a2.78,2.78,0,0,0,1.31-.72l.3,0v-.3l.43.07,0-.33.44.14-.07-.33.31.09,0-.32.45.08,0-.22.36-.24.6-.33v-.21l.45.05c0-.09,0-.27,0-.36l.92-.35,0-.13c.2-.11.4-.22.61-.32l.37-.26,0-.2.44.08-.06-.31.3.09,0-.32.45.07,0-.32.29.09,0-.29.43,0,0-.45h.44c0-.11,0-.34,0-.45l.44.05,0-.3.43.08v-.33l.45.11,0-.21.36-.25.5-.33a3.3,3.3,0,0,1,.22-.3q.38-.35.78-.66v-.18l.43.1,0-.32a3.25,3.25,0,0,0,.43.08l-.05-.31.31.08-.07-.18.37-.32.17.06,0-.17a4.29,4.29,0,0,0,.59-.54h.31l0-.18.33-.35.07.05a11.22,11.22,0,0,0,.92-1.33l.31-.05c0-.11,0-.33,0-.44h.3c0-.11-.06-.32-.07-.43l.31,0c0-.11-.08-.33-.1-.44l.32,0-.08-.44.27,0c0-.49,0-1,0-1.45l-.21.07c0-.78-.05-1.55,0-2.33l.23.05c0-.18,0-.54,0-.73l.27.05-.11-.3.31.06Zm-6.82,14-.36.33-.2-.09.1.29h-.75l0,.3-.44-.12v.31l-.44,0,0,.44-.45,0V473l-.43-.08v.21l-.72.34,0,.22-.46-.08,0,.32-.3-.09,0,.3-.45-.05,0,.46-.43,0v.21l-.7.34,0,.11-.71.34v.21l-.44-.09v.18l-.62.51-.28,0v.26h-.44l0,.3c-.37.32-.72.66-1.07,1l.41.06c0,.12,0,.35-.06.47l.32-.07-.09.31.22-.05.37.75c.4,0,.83,0,1-.48l.34,0-.07-.3.3.08,0-.3.46.06-.06-.31.3.1,0-.31.46.07,0-.31.3.09,0-.32.44.1-.06-.32.3.09,0-.23.72-.34,0-.22.45.06c0-.12,0-.35.05-.46l.43,0v-.29l.45.06-.05-.22.74-.34,0-.21h.31l.6-.52.06-.17.41.11-.07-.33.22.08.29-.35.48-.21,0-.12.73-.31,0-.21.51.07c0-.33,0-.65,0-1l-.29,0,.08-.45-.32,0,.09-.17-.33-.36-.17.07,0-.28-.54,0Z" transform="translate(-439.08 -418.27)"/><path d="M507.85,473.52a3.1,3.1,0,0,1,1.59.87l0,.2.32-.12-.09.19.36.35.17-.09,0,.18c.45.37.88.76,1.33,1.12l0,.18.18-.07.37.33-.08.18.3-.08v.16l.54.48.55.4V478l1,0v-.14a12.52,12.52,0,0,0,1-.9c.17-.15.35-.29.53-.43l0-.18.17.07.36-.33-.08-.18.31.09,0-.16c.29-.24.56-.5.83-.77l.3,0,0-.29.31.09-.09-.18.37-.33,0,.07.36-.35-.07-.18.31.07-.07-.28h.69c0,3.12,0,6.23,0,9.35l-.68,0,.06-.27-.31.08.07-.31-.31.1.08-.19L518,482l-.18.09,0-.18c-.6-.48-1.14-1-1.69-1.57l-.69-.68-.37-.19.06-.2h-.95q0,5,0,10.08l.3,0c0,.11-.08.33-.1.43l.15,0,.56.58v.31l.28,0c0,.24,0,.72,0,1l-.29-.07.11.32-.31-.08.09.31-.31-.08.08.3-.32,0,.11.44-.29,0c-.07,4.14,0,8.29,0,12.43a2.46,2.46,0,0,0,.3,1.27l.24-.05-.05.3.45,0c0,.12,0,.35,0,.46l.32,0a2.11,2.11,0,0,1-.58,1.6l-.21,0,.07.29-.31,0,.12.44-.3,0c0,4.34-.07,8.69,0,13l.15-.06.34.36-.07.19.31-.1-.09.31.32-.08-.11.32.32-.07c0,.34,0,.68,0,1a12.89,12.89,0,0,0-1.15,1.07q0,6.48,0,13l.28,0c0,.08,0,.22,0,.29a8.82,8.82,0,0,1,.76.86l.13,0v.9c-.37.36-.72.73-1,1.12l-.12,0c0,4.56,0,9.13,0,13.69h.29c0,.11-.05.33-.06.44l.28,0,0,.13.49.59.16,0c0,.33,0,.67,0,1-.4.33-.77.7-1.14,1.06-.07,2.42,0,4.85,0,7.27l-.68.08c0-2,0-3.93,0-5.89a5.86,5.86,0,0,0-.23-1.25h-.23c0-.11.07-.33.09-.44l-.2,0-.29-.35-.32-.6-.16,0c0-.25,0-.74,0-1l.29.1-.13-.33.32.08-.1-.31.31.07,0-.18.33-.36.11.05a4.62,4.62,0,0,0,.25-1.26V542.73a4.24,4.24,0,0,0-.22-1.23c-.37-.4-.75-.79-1.13-1.19,0-.23,0-.69,0-.92l.18.06c.11-.24.22-.48.34-.72h.38l0-.44h.27c0-.18,0-.53,0-.7l.2,0c0-4,0-7.93,0-11.9h-.27c0-.11.1-.32.13-.42l-.31,0v-.44h-.34a2.13,2.13,0,0,1-.6-1.61l.33.06-.11-.32.19.07c.08-.08.25-.26.33-.36l-.06-.17.24.07c.12-.31.24-.61.35-.92h.13c0-3.08,0-6.17,0-9.25a10.12,10.12,0,0,0-.22-3.11l-.23,0c0-.12.05-.35.06-.46l-.31,0,.09-.3-.3.05v-.34c-.59-.16-.4-.81-.45-1.26l.46,0c0-.12,0-.34,0-.45l.3.05-.08-.29.31,0-.06-.48.31,0c0-.12-.08-.36-.11-.48l.25,0c0-4.19,0-8.39,0-12.58l-.25,0c0-.11.06-.33.09-.44l-.21.05-.33-.38.08-.17-.2.05c-.18-.26-.36-.5-.52-.76-.21-.54.29-.9.54-1.3l.34,0c0-.11,0-.34,0-.45h.32l-.12-.43h.28c0-3.08,0-6.16,0-9.24a1.22,1.22,0,0,0-.35-1l-.12.48-.44-.07.07.31-.19-.08-.36.34,0,.18-.44,0,0,.46-.44,0,0,.32-.17-.08-.36.33v0a15.28,15.28,0,0,0-1.39,1.27l-.22-.05.08.17-.36.34-.18-.09.06.29-.93,0Q507.84,478.23,507.85,473.52Z" transform="translate(-439.08 -418.27)"/><path class="cls-1" d="M462.54,581.37a3,3,0,0,1,2.88.1,4.63,4.63,0,0,1,1.53,3,23.56,23.56,0,0,1-.61,8.84,35.34,35.34,0,0,1-1.61,5.15,1.35,1.35,0,0,1-2.28.34,3.56,3.56,0,0,1,0-.73,1.33,1.33,0,0,0,.94-.36,9.72,9.72,0,0,0,1.66-3.27,25.07,25.07,0,0,0,1.37-8.45c-.07-1.25-.21-2.68-1.22-3.55s-2.17-.27-3.08.24c-2.29,1.34-4,3.38-5.86,5.26a53.85,53.85,0,0,0-10.93,16.45A31.26,31.26,0,0,0,443,614a8.89,8.89,0,0,0,1.79,6.11,4.43,4.43,0,0,0,4.49,1,23.39,23.39,0,0,0,7.47-4,96,96,0,0,0,12.56-11.63c.59-.59.87-1.39,1.4-2a4.65,4.65,0,0,1,3.59-1.94,2.81,2.81,0,0,1,1.4.46c.61-.36,1.43-1.38,2.11-.72.52,1.66-1.25,3.23-.53,4.9.57.88,1.82.68,2.7.5a19.23,19.23,0,0,0,6.71-3.27,3.73,3.73,0,0,1,1.65-3.1,4.56,4.56,0,0,1,2.61-1.13.82.82,0,0,1,.75.89,7.57,7.57,0,0,1-.6,2.84c-.21.75-1.57.59-1.61-.19.27-1,1.24-1.67,1.16-2.72a3.77,3.77,0,0,0-2.05,1.51,2.7,2.7,0,0,0-.74,2.63,18.84,18.84,0,0,0,2.07,3.4,43.31,43.31,0,0,1,9.69-5.21c.09,0,.29.13.39.17a3.49,3.49,0,0,1,4-.5,5.21,5.21,0,0,1,1.63-1c.59,0,.66.71.56,1.15-.15,1.28-1.05,2.46-.72,3.78.22.77,1.15.94,1.84.88a14.66,14.66,0,0,0,5-1.73,10.24,10.24,0,0,0,2.92-2c.56-1,.66-2.27,1.31-3.26a1.46,1.46,0,0,1,1.79.07c-.83,2.41-1.91,4.74-2.61,7.2a6.68,6.68,0,0,0-.17,1.09c1.94-2.11,3.19-4.75,5-7a3.9,3.9,0,0,1,1.56-1.29,1.28,1.28,0,0,1,1.56.48,2.74,2.74,0,0,1-.16,2,21.58,21.58,0,0,1-1.15,3c-.21.41-.41.82-.58,1.25,1.08-.89,1.91-2.15,3.24-2.72a.85.85,0,0,1,1.1.42c.53.85.4,2,1,2.79.5.57,1.34.32,1.91,0a17.21,17.21,0,0,0,5.3-4.93,2.79,2.79,0,0,1,2.18-1.24c.77.14.9,1.14.59,1.74-.63,1.24-2,1.81-3.19,2.36a2.82,2.82,0,0,0,.58,2.06,2.51,2.51,0,0,0,2.21.15,23.23,23.23,0,0,0,5.84-3.05,7.22,7.22,0,0,0,1.17-.89c.3-.88.39-1.83.73-2.7a.71.71,0,0,1,1.32.34c-.39,1.56-.92,3.07-1.35,4.61.87-1,1.6-2.15,2.85-2.64.69-.27,1.21.39,1.42,1,.56,1.27,1.57,2.65,3.1,2.64s3-1.1,4.34-2c.49-.38,1.19-.65,1.33-1.33.85-2.68,1.85-5.32,2.93-7.92-1.93,0-3.87,0-5.79.12l-.68,0-.08-.14h0c.31,0,.62-.09.94-.12,2-.07,3.9-.21,5.85-.38a57.18,57.18,0,0,1,4.65-9,5.34,5.34,0,0,1,1.82-1.84c.56-.16.83.56.78,1a10.87,10.87,0,0,1-1.51,3.82,70.27,70.27,0,0,1-3.93,6c4.64-.39,9.28-.79,13.92-1.11.78,0,1.57-.09,2.35-.07.06,1-1,1.34-1.78,1.61-.49.21-.64-.4-.69-.74-4.71.24-9.43.42-14.13.81a40.49,40.49,0,0,0-2.51,5.07,75.1,75.1,0,0,0-3.12,8.62,26.88,26.88,0,0,0-1.17,6.27,4.37,4.37,0,0,0,.51,2.41c.31.51,1,.56,1.45.81,0,.28-.18.79-.55.58a3.05,3.05,0,0,1-1.52-2.48,16.46,16.46,0,0,1,.15-4.75,51.32,51.32,0,0,1,1.58-6.81,11.58,11.58,0,0,1-4.54,2.24,3.42,3.42,0,0,1-3-.79,6.54,6.54,0,0,1-1.49-2.21,3.4,3.4,0,0,0-1.75,1.24,20,20,0,0,0-2.48,3.38.94.94,0,0,1-1.18.33c-.28-.26,0-.64,0-.95.29-1.17.58-2.34.88-3.51a22.12,22.12,0,0,1-6.54,3.07,3.38,3.38,0,0,1-2.78-.35,3.15,3.15,0,0,1-1-2.42,17.27,17.27,0,0,1-4.07,2.57,2.12,2.12,0,0,1-2.11,0c-.92-.68-.95-1.93-1.54-2.83-1.47.88-2.3,2.44-3.56,3.55-.63.59-2.24.27-1.87-.82a52.19,52.19,0,0,0,2.4-6,2.9,2.9,0,0,0,0-1.21,5.56,5.56,0,0,0-2,2.13c-1.08,1.69-2.06,3.45-3.18,5.11a9.32,9.32,0,0,1-1.74,2.06.92.92,0,0,1-1.5-.72,18.86,18.86,0,0,1,1-4.68,27.66,27.66,0,0,1-5.79,2.62,6.28,6.28,0,0,1-3.35.27,1.73,1.73,0,0,1-1.21-1.65,12.56,12.56,0,0,1,.59-3.38c-.25.23-.5.46-.74.7,0,.26,0,.52,0,.77-.25.39-.7.29-1.09.26a38.62,38.62,0,0,1-3.73,3.27,2.25,2.25,0,0,1-1.22.49,1.06,1.06,0,0,1-.78-1.17,6,6,0,0,1,.95-2.36,31.05,31.05,0,0,0-4,1.76,30.09,30.09,0,0,0-4.38,2.51,6.27,6.27,0,0,1-.15,5.22,6.63,6.63,0,0,1-2.49,3,3.38,3.38,0,0,1-2.82.37,1.59,1.59,0,0,1-.93-1.43,4.24,4.24,0,0,1,.92-2.72,21.54,21.54,0,0,1,4.77-4.76c-.91-1.29-2.12-2.38-2.72-3.87a23.1,23.1,0,0,1-7.45,3.06c-1,.15-2.39.13-2.87-1-.51-1.37.13-2.8.39-4.15l-.73.7q0,.39,0,.78c-.25.37-.7.3-1.08.24a38.67,38.67,0,0,1-3.74,3.28,2.24,2.24,0,0,1-1.24.49c-.39-.07-.57-.46-.8-.73a106.8,106.8,0,0,1-8,7.76,46.46,46.46,0,0,1-8.36,6,10.45,10.45,0,0,1-6.05,1.55,4.39,4.39,0,0,1-3.24-2.49c-1.53-2.83-1.42-6.2-.85-9.27,1.32-6.6,4.6-12.64,8.58-18a63.2,63.2,0,0,1,6.69-7.65A15.61,15.61,0,0,1,462.54,581.37Zm103.21,5.36c-.91,1.78-1.87,3.53-2.65,5.37a23.81,23.81,0,0,0,1.79-2.84,19.13,19.13,0,0,0,2.09-4.58A13.74,13.74,0,0,0,565.75,586.73Zm-31.38,17a5.91,5.91,0,0,0,1.74-2A5.46,5.46,0,0,0,534.37,603.77Zm-61-.62a5.36,5.36,0,0,0-1.91,2.52,7.45,7.45,0,0,0,3.11-2.86A1.82,1.82,0,0,0,473.37,603.15Zm28.35,0a5.61,5.61,0,0,0-1.93,2.51,7.21,7.21,0,0,0,3.12-2.85A1.79,1.79,0,0,0,501.72,603.15Zm-15.3,8.53a9.32,9.32,0,0,0-1.64,2.65c-.09.4-.2,1,.18,1.24a2.21,2.21,0,0,0,2.11-.2,6.24,6.24,0,0,0,2.32-2.61,5.62,5.62,0,0,0,.51-4.35A20.35,20.35,0,0,0,486.42,611.68Z" transform="translate(-439.08 -418.27)"/><path class="cls-1" d="M546.13,594.69c.52-.31,1.45-.2,1.53.53-.17.27-.7,0-1,0S545.64,595,546.13,594.69Z" transform="translate(-439.08 -418.27)"/><path class="cls-1" d="M548.05,595.27c1-.21,2,0,3.05-.13a3,3,0,0,1,1.84.27c-.74,0-1.47,0-2.2,0-.9,0-1.8,0-2.7,0Z" transform="translate(-439.08 -418.27)"/><path class="cls-1" d="M576.17,599.23a1.45,1.45,0,0,1,1.44,0,1.67,1.67,0,0,1,.25,1.28,9.17,9.17,0,0,1-.64,2.36c-.33.69-1.75.36-1.53-.47.38-.84,1.15-1.56,1.15-2.54a3.7,3.7,0,0,0-2.08,1.51A2.7,2.7,0,0,0,574,604a18.21,18.21,0,0,0,2.07,3.39,44.52,44.52,0,0,1,9.75-5.25c.44.25.83.82.44,1.3a19.47,19.47,0,0,0-2.9.9,45,45,0,0,0-6.94,3.73,6,6,0,0,1,.18,4.36,7.23,7.23,0,0,1-2.59,3.71,3.42,3.42,0,0,1-3.18.47,2,2,0,0,1-.78-2.12,6.78,6.78,0,0,1,1.53-2.84,23.9,23.9,0,0,1,4.14-3.9c-1-1.42-2.41-2.62-2.87-4.36a18,18,0,0,1-6.89-.6c-.15,1.87-.52,3.92-1.91,5.3a1.46,1.46,0,0,1-2.2.06,3.71,3.71,0,0,1,0-2.85,9.41,9.41,0,0,1,2.42-3.79c0-.37,0-.85.5-.88s.75.8,1.1,1.22a3.46,3.46,0,0,0,2.1.86,20.1,20.1,0,0,0,4.84-.11A5.22,5.22,0,0,1,576.17,599.23ZM564,603a7.76,7.76,0,0,0-1.6,4.19c-.07.37.29.93.67.57a5.16,5.16,0,0,0,1.08-2,11.3,11.3,0,0,0,.77-3.75A4.15,4.15,0,0,0,564,603Zm7.38,10.39a2.47,2.47,0,0,0-.45,2,1.54,1.54,0,0,0,1.61.27,5.23,5.23,0,0,0,2.71-2.41,5.86,5.86,0,0,0,.79-4.84A17.93,17.93,0,0,0,571.4,613.34Z" transform="translate(-439.08 -418.27)"/><path d="M476.56,572.09h.9q3,8.65,6,17.29h2.06V590h-8.25c0-.16,0-.48,0-.64H480l-1.56-4.67h-5.72c-.54,1.56-1.1,3.11-1.63,4.68h2.69V590h-5.54c0-.16,0-.48,0-.64h2.09Q473.42,580.73,476.56,572.09Zm-.94,4.62c-.89,2.45-1.79,4.9-2.66,7.36h5.13C477.26,581.62,476.46,579.16,475.62,576.71Z" transform="translate(-439.08 -418.27)"/><path d="M512.51,572.48a24.93,24.93,0,0,0,4.72-.39v17.29h1.91c0,.16,0,.48,0,.64a31.94,31.94,0,0,0-4.69.19c0-.66,0-1.32,0-2a4.21,4.21,0,0,1-2,1.89,3.77,3.77,0,0,1-4-.76,8.48,8.48,0,0,1-2.17-6.14A8.08,8.08,0,0,1,509,576.9a3.59,3.59,0,0,1,4.27-.15,4.38,4.38,0,0,1,1.13,1.56v-5.2h-1.89Zm-1.83,4.23a2.05,2.05,0,0,0-1,1.3,16.92,16.92,0,0,0-.39,5,23.77,23.77,0,0,0,.26,5,2.78,2.78,0,0,0,1,1.68,1.79,1.79,0,0,0,2.12-.43,6.36,6.36,0,0,0,1.75-4.54c0-2.35.22-5-1.24-7A2.26,2.26,0,0,0,510.68,576.71Z" transform="translate(-439.08 -418.27)"/><path d="M489.31,576.26c1.51-.08,3-.07,4.53-.12v2.45A4.5,4.5,0,0,1,496,576.5a3.47,3.47,0,0,1,3.91.44,6.09,6.09,0,0,1,1.09,3.63c0,2.93,0,5.87,0,8.81h1.69V590h-6.09v-.64h1.67v-8.25a15,15,0,0,0-.25-2.92,1.38,1.38,0,0,0-1-1.17,2,2,0,0,0-1.85,1,8.15,8.15,0,0,0-1.32,4.64c0,2.24,0,4.48,0,6.73h1.67V590h-6.2v-.65h1.78V576.89h-1.78Z" transform="translate(-439.08 -418.27)"/><path d="M523.68,576.26c1.5-.08,3-.07,4.51-.12,0,1,0,1.93,0,2.9a5.23,5.23,0,0,1,2.83-2.79,2.49,2.49,0,0,1,2.62.53,1.5,1.5,0,0,1-.47,2.39,1.78,1.78,0,0,1-1.79-.31c-.44-.51-.17-1.22-.18-1.82a2,2,0,0,0-1.68,1.26,12.4,12.4,0,0,0-1.3,6.05v5h2.36V590h-6.71v-.65h1.55V576.89h-1.74Z" transform="translate(-439.08 -418.27)"/><path d="M541.28,576.33a4,4,0,0,1,3.62.53,6.14,6.14,0,0,1,2.25,5.65h-6.7c.06,1.93-.2,3.93.4,5.8a2.13,2.13,0,0,0,1.16,1.45,2.74,2.74,0,0,0,3-1,9.64,9.64,0,0,0,1.65-3.68h.62a7.43,7.43,0,0,1-2.29,4.39,4,4,0,0,1-4.66.34,7.39,7.39,0,0,1-2.9-4.87,9.42,9.42,0,0,1,1.08-6.09A5.49,5.49,0,0,1,541.28,576.33Zm-.34,1.19a12.72,12.72,0,0,0-.49,4.35c1.27,0,2.54,0,3.8,0,.08-1.52.28-3.19-.53-4.55A1.61,1.61,0,0,0,540.94,577.52Z" transform="translate(-439.08 -418.27)"/><path d="M550.23,576.26h6q0,.32,0,.63h-1.68c1,2.77,1.93,5.55,2.92,8.31.87-2.76,1.69-5.54,2.51-8.31h-1.88v-.63h4.12v.62h-1.48q-2.25,7.3-4.49,14.62a21.4,21.4,0,0,1-.71,2.09c-.32,0-.63.07-.94.13a14,14,0,0,0,1.51-4.45c-1.49-4.14-3.07-8.26-4.61-12.4h-1.27C550.22,576.73,550.23,576.42,550.23,576.26Z" transform="translate(-439.08 -418.27)"/><path d="M551.86,593.69c.87-.47,1.79.19,2.69,0l0,.06.08.14.67,0a5,5,0,0,1-1.86,2.07,1.61,1.61,0,0,1-1.93-.43,1.75,1.75,0,0,1,0-1.59c.73,0,1.46,0,2.2,0A3,3,0,0,0,551.86,593.69Zm2,.55c.17.24.76.08.55-.26S553.74,593.93,553.83,594.24Z" transform="translate(-439.08 -418.27)"/></svg>